<svg width="16" height="16" viewBox="0 0 16 16" fill="none" xmlns="http://www.w3.org/2000/svg">
<path d="M13.2383 7.26172V5.75H10.25V2.76172H8.73828V5.75H5.75V7.26172H8.73828V10.25H10.25V7.26172H13.2383ZM14.0117 0.511719C14.4102 0.511719 14.75 0.664062 15.0312 0.96875C15.3359 1.25 15.4883 1.58984 15.4883 1.98828V10.9883C15.4883 11.3867 15.3359 11.7383 15.0312 12.043C14.75 12.3477 14.4102 12.5 14.0117 12.5H5.01172C4.61328 12.5 4.26172 12.3477 3.95703 12.043C3.65234 11.7383 3.5 11.3867 3.5 10.9883V1.98828C3.5 1.58984 3.65234 1.25 3.95703 0.96875C4.26172 0.664062 4.61328 0.511719 5.01172 0.511719H14.0117ZM1.98828 3.5V14.0117H12.5V15.4883H1.98828C1.58984 15.4883 1.23828 15.3477 0.933594 15.0664C0.652344 14.7617 0.511719 14.4102 0.511719 14.0117V3.5H1.98828Z" fill="#8083A3"/>
</svg>
