<svg id="SvgjsSvg1001" width="288" height="288" xmlns="http://www.w3.org/2000/svg" version="1.1" xmlns:xlink="http://www.w3.org/1999/xlink" xmlns:svgjs="http://svgjs.com/svgjs"><defs id="SvgjsDefs1002"></defs><g id="SvgjsG1008"><svg xmlns="http://www.w3.org/2000/svg" fill="none" viewBox="0 0 18 20" width="288" height="288"><path fill="#6b59cc" d="M13.5977 8.25V6.40234H4.40234V8.25H13.5977ZM13.5977 11.9023V10.0977H4.40234V11.9023H13.5977ZM10.8477 15.5977V13.75H4.40234V15.5977H10.8477ZM9.64453 3.00781C9.47266 2.83594 9.25781 2.75 9 2.75C8.74219 2.75 8.52734 2.83594 8.35547 3.00781C8.18359 3.17969 8.09766 3.39453 8.09766 3.65234C8.09766 3.91016 8.18359 4.13932 8.35547 4.33984C8.52734 4.51172 8.74219 4.59766 9 4.59766C9.25781 4.59766 9.47266 4.51172 9.64453 4.33984C9.81641 4.13932 9.90234 3.91016 9.90234 3.65234C9.90234 3.39453 9.81641 3.17969 9.64453 3.00781ZM15.4023 2.75C15.8893 2.75 16.319 2.9362 16.6914 3.30859C17.0638 3.68099 17.25 4.11068 17.25 4.59766V17.4023C17.25 17.8893 17.0638 18.319 16.6914 18.6914C16.319 19.0638 15.8893 19.25 15.4023 19.25H2.59766C2.11068 19.25 1.68099 19.0638 1.30859 18.6914C0.936198 18.319 0.75 17.8893 0.75 17.4023V4.59766C0.75 4.11068 0.936198 3.68099 1.30859 3.30859C1.68099 2.9362 2.11068 2.75 2.59766 2.75H6.42188C6.6224 2.20573 6.95182 1.76172 7.41016 1.41797C7.86849 1.07422 8.39844 0.902344 9 0.902344C9.60156 0.902344 10.1315 1.07422 10.5898 1.41797C11.0482 1.76172 11.3776 2.20573 11.5781 2.75H15.4023Z" class="color8083A3 svgShape"></path></svg></g></svg>