<svg id="SvgjsSvg1011" width="288" height="288" xmlns="http://www.w3.org/2000/svg" version="1.1" xmlns:xlink="http://www.w3.org/1999/xlink" xmlns:svgjs="http://svgjs.com/svgjs"><defs id="SvgjsDefs1012"></defs><g id="SvgjsG1013"><svg xmlns="http://www.w3.org/2000/svg" fill="none" viewBox="0 0 21 21" width="288" height="288"><path fill="#6b59cc" d="M17.7773 10.0977C18.4076 10.0977 18.9518 10.3268 19.4102 10.7852C19.8685 11.2148 20.0977 11.7448 20.0977 12.375C20.0977 13.0052 19.8685 13.5495 19.4102 14.0078C18.9518 14.4375 18.4076 14.6523 17.7773 14.6523H16.4023V18.3477C16.4023 18.8346 16.2161 19.2643 15.8438 19.6367C15.5 19.9805 15.0846 20.1523 14.5977 20.1523H11.1172V18.7773C11.1172 18.0898 10.8737 17.5169 10.3867 17.0586C9.89974 16.5716 9.3125 16.3281 8.625 16.3281C7.9375 16.3281 7.35026 16.5716 6.86328 17.0586C6.3763 17.5169 6.13281 18.0898 6.13281 18.7773V20.1523H2.65234C2.16536 20.1523 1.73568 19.9805 1.36328 19.6367C1.01953 19.2643 0.847656 18.8346 0.847656 18.3477V14.8672H2.22266C2.91016 14.8672 3.48307 14.6237 3.94141 14.1367C4.42839 13.6497 4.67188 13.0625 4.67188 12.375C4.67188 11.6875 4.42839 11.1003 3.94141 10.6133C3.48307 10.1263 2.91016 9.88281 2.22266 9.88281H0.847656V6.40234C0.847656 5.91536 1.01953 5.5 1.36328 5.15625C1.73568 4.78385 2.16536 4.59766 2.65234 4.59766H6.34766V3.22266C6.34766 2.59245 6.5625 2.04818 6.99219 1.58984C7.45052 1.13151 7.99479 0.902344 8.625 0.902344C9.25521 0.902344 9.78516 1.13151 10.2148 1.58984C10.6732 2.04818 10.9023 2.59245 10.9023 3.22266V4.59766H14.5977C15.0846 4.59766 15.5 4.78385 15.8438 5.15625C16.2161 5.5 16.4023 5.91536 16.4023 6.40234V10.0977H17.7773Z" class="color8083A3 svgShape"></path></svg></g></svg>