<svg width="36" height="36" viewBox="0 0 36 36" fill="none" xmlns="http://www.w3.org/2000/svg">
<mask id="mask0_0_4217" style="mask-type:luminance" maskUnits="userSpaceOnUse" x="0" y="0" width="36" height="36">
<path fill-rule="evenodd" clip-rule="evenodd" d="M0 36H36V0H0V36Z" fill="white"/>
</mask>
<g mask="url(#mask0_0_4217)">
<path fill-rule="evenodd" clip-rule="evenodd" d="M4.5 0H31.5C33.9853 0 36 2.01472 36 4.5V31.5C36 33.9853 33.9853 36 31.5 36H4.5C2.01472 36 0 33.9853 0 31.5V4.5C0 2.01472 2.01472 0 4.5 0ZM18 4.7927C17.3374 4.7927 16.8003 5.32984 16.8003 5.99243V23.393C16.8003 24.0556 17.3374 24.5927 18 24.5927C18.6626 24.5927 19.1997 24.0556 19.1997 23.393V5.99243C19.1997 5.32984 18.6626 4.7927 18 4.7927ZM10.8 6.59974C10.8 5.93693 11.3373 5.39961 12.0001 5.39961C12.6629 5.39961 13.2003 5.93693 13.2003 6.59974V22.6315C13.2003 23.2943 12.6629 23.8316 12.0001 23.8316C11.3373 23.8316 10.8 23.2943 10.8 22.6315V6.59974ZM5.99987 7.79987C5.33706 7.79987 4.79974 8.33719 4.79974 9V19.7922C4.79974 20.455 5.33706 20.9923 5.99987 20.9923C6.66268 20.9923 7.2 20.455 7.2 19.7922V9C7.2 8.33719 6.66268 7.79987 5.99987 7.79987ZM31.2003 19.7922C31.2003 20.455 30.6629 20.9923 30.0001 20.9923C29.3373 20.9923 28.8 20.455 28.8 19.7922V9C28.8 8.33719 29.3373 7.79987 30.0001 7.79987C30.6629 7.79987 31.2003 8.33719 31.2003 9V19.7922ZM30.7816 27.3037C30.5961 27.4625 26.1501 31.1932 18 31.1932C9.84991 31.1932 5.40391 27.4625 5.21843 27.3037C4.73591 26.8677 4.68817 26.1269 5.11074 25.6327C5.53332 25.1384 6.27258 25.0705 6.77817 25.4794C6.84861 25.5381 10.818 28.793 18 28.793C25.272 28.793 29.1803 25.5146 29.2187 25.4817C29.7218 25.0502 30.4795 25.1082 30.9111 25.6113C31.3427 26.1144 31.2847 26.8721 30.7816 27.3037ZM22.7997 6.59974C22.7997 5.93693 23.3371 5.39961 23.9999 5.39961C24.6627 5.39961 25.2 5.93693 25.2 6.59974V22.6315C25.2 23.2943 24.6627 23.8316 23.9999 23.8316C23.3371 23.8316 22.7997 23.2943 22.7997 22.6315V6.59974Z" fill="#1F8DED"/>
</g>
</svg>
