<svg width="36" height="36" viewBox="0 0 36 36" fill="none" xmlns="http://www.w3.org/2000/svg">
<path d="M32.7365 0H3.26348C1.46111 0 0 1.46111 0 3.26348V32.7365C0 34.5389 1.46111 36 3.26348 36H32.7365C34.5389 36 36 34.5389 36 32.7365V3.26348C36 1.46111 34.5389 0 32.7365 0" fill="#DC395F"/>
<path fill-rule="evenodd" clip-rule="evenodd" d="M14.0593 9.11362C14.0593 10.327 13.044 11.253 11.8326 11.253C10.6213 11.253 9.60602 10.327 9.60602 9.11362C9.60602 7.90028 10.6213 6.97501 11.8326 6.97501C13.044 6.97501 14.0593 7.90028 14.0593 9.11362ZM7.02032 24.3157C7.0248 23.7743 7.09055 23.2352 7.21633 22.7086L8.88629 16.0563H6.2998L7.08539 13.2304H13.3066L10.8503 22.7289C10.6864 23.3364 10.6213 23.8397 10.6213 24.1904C10.6213 24.7979 10.9279 24.9748 11.4077 25.0805C11.6994 25.1447 14.0263 25.1 15.2925 22.354L16.9053 16.0563H14.2866L15.073 13.2304H20.6709L19.9504 16.4399C20.9328 14.6512 22.8975 12.9525 24.8294 12.9525C26.8921 12.9525 28.595 14.385 28.595 17.1311C28.595 17.8333 28.4962 18.5981 28.2344 19.4592L27.1861 23.1297C27.0881 23.5133 27.0231 23.8327 27.0231 24.12C27.0231 24.7579 27.2849 25.0765 27.7757 25.0765C28.2673 25.0765 28.889 24.7251 29.6096 22.7782L31.0498 23.3207C30.1984 26.2257 28.6601 27.439 26.7283 27.439C24.4687 27.439 23.3883 26.131 23.3883 24.3423C23.3863 23.8019 23.4634 23.2642 23.6173 22.7461L24.6977 18.9785C24.8294 18.5636 24.8623 18.1808 24.8623 17.8294C24.8623 16.6168 24.1089 15.8817 22.8975 15.8817C21.3585 15.8817 20.3432 16.9597 19.8195 19.0341L17.7238 27.23H14.0569L14.7155 24.6546C13.6375 26.3815 12.1408 27.45 10.2936 27.45C8.06777 27.45 7.02032 26.1999 7.02032 24.3157Z" fill="white"/>
</svg>
