<svg width="26" height="35" viewBox="0 0 26 35" fill="none" xmlns="http://www.w3.org/2000/svg">
<path fill-rule="evenodd" clip-rule="evenodd" d="M10.7467 2.25015C10.7467 1.00626 11.7542 0 12.9996 0C14.2451 0 15.2526 1.00626 15.2526 2.25015C15.2526 3.49034 14.2451 4.50031 12.9996 4.50031C11.7542 4.50031 10.7467 3.49405 10.7467 2.25015ZM5.60121 2.05336C4.35574 2.05336 3.34822 3.05962 3.34822 4.30723C3.34822 5.55112 4.35574 6.55738 5.60121 6.55738C6.84667 6.55738 7.8542 5.54741 7.8542 4.30723C7.8542 3.05962 6.84667 2.05336 5.60121 2.05336ZM20.3981 2.05336C19.1526 2.05336 18.1451 3.05962 18.1451 4.30351C18.1451 5.54741 19.1526 6.55367 20.3981 6.55367C21.6398 6.55367 22.6511 5.5437 22.6511 4.30351C22.6511 3.05962 21.6398 2.05707 20.3981 2.05336ZM25.722 8.32854C25.5993 8.23571 25.4469 8.18373 25.2944 8.18373C25.2089 8.18373 25.1234 8.19858 25.0416 8.232C23.5173 8.81496 21.967 9.25682 20.5542 9.58729C20.2642 9.65413 20.0337 9.86949 19.9371 10.1257C18.9072 12.944 16.2788 15.6248 13.5201 18.4357C13.4086 18.5396 13.2562 18.6807 13.0034 18.6807C12.7506 18.6807 12.5981 18.5471 12.4866 18.4357L12.4645 18.4132C9.71027 15.6069 7.09301 12.9402 6.06222 10.1294C5.96555 9.8732 5.73133 9.65784 5.44506 9.591C4.03229 9.26053 2.47825 8.80753 0.95395 8.22457C0.872158 8.19487 0.786648 8.1763 0.701139 8.1763C0.548709 8.1763 0.399996 8.22457 0.277309 8.32111C0.0839828 8.46964 -0.0163981 8.70357 0.00219097 8.94492C0.240131 11.2879 1.16586 13.5789 2.83888 15.9776C4.39929 18.2176 6.43187 20.2895 8.39912 22.2948L8.44533 22.3419L8.45482 22.3515C12.1059 26.0722 15.5503 29.5823 15.8512 33.6558C15.8772 34.0234 16.1858 34.3093 16.5539 34.3093H20.8479C21.2383 34.3093 21.5543 33.9937 21.5543 33.6038V33.5704C21.4205 30.8449 20.3906 28.1158 18.4165 25.227C18.0038 24.6217 17.5577 24.0313 17.093 23.4558C16.9033 23.2219 16.9851 22.9285 17.1264 22.7837C17.1975 22.7109 17.2695 22.6381 17.3419 22.5648L17.342 22.5647C17.4136 22.4923 17.4856 22.4194 17.5577 22.3456L17.6039 22.2985C19.5711 20.2932 21.6037 18.2213 23.1641 15.9813C24.8371 13.5826 25.7629 11.3028 25.9971 8.96348C26.0194 8.72213 25.9116 8.47335 25.722 8.32854ZM7.89138 25.2975C8.14419 25.2975 8.2929 25.4052 8.39328 25.5129C9.67964 26.8533 10.5459 27.8336 11.256 28.7544C11.3973 28.9364 11.5869 29.3671 11.3415 29.8238C10.6277 31.1457 10.2373 32.4007 10.1444 33.6558C10.1146 34.0234 9.80977 34.3093 9.43799 34.3093H5.15135C4.95803 34.3093 4.77214 34.2313 4.6383 34.0902C4.50446 33.9491 4.43754 33.7597 4.44497 33.5667C4.57138 30.9638 5.50455 28.372 7.30768 25.628C7.38204 25.5203 7.57165 25.2975 7.89138 25.2975Z" fill="#264970"/>
<path d="M13.0037 10.2682C14.3629 10.2682 15.1513 10.1856 15.4254 10.1856C15.7595 10.1856 16.0824 10.4597 16.0824 10.8464C16.0824 10.959 16.0561 11.0379 16.0299 11.1092C15.8496 11.5898 15.0274 13.3245 13.4993 14.8113C13.3266 14.9765 13.1351 15.0103 13 15.0103C12.8648 15.0103 12.6733 14.9803 12.5006 14.8113C10.9725 13.3245 10.1503 11.5898 9.97004 11.1092C9.94376 11.0379 9.91748 10.959 9.91748 10.8464C9.91748 10.4634 10.2366 10.1856 10.5745 10.1856C10.8524 10.1856 11.6371 10.2682 12.9962 10.2682H13.0037" fill="#264970"/>
</svg>
