<svg width="16" height="15" viewBox="0 0 16 15" fill="none" xmlns="http://www.w3.org/2000/svg">
<path d="M12.5 4.51172V3H3.5V4.51172H12.5ZM9.51172 9.01172V7.5H3.5V9.01172H9.51172ZM3.5 5.25V6.76172H12.5V5.25H3.5ZM14.0117 0.0117188C14.4102 0.0117188 14.75 0.164062 15.0312 0.46875C15.3359 0.75 15.4883 1.08984 15.4883 1.48828V10.4883C15.4883 10.8867 15.3359 11.2383 15.0312 11.543C14.75 11.8477 14.4102 12 14.0117 12H3.5L0.511719 14.9883V1.48828C0.511719 1.08984 0.652344 0.75 0.933594 0.46875C1.23828 0.164062 1.58984 0.0117188 1.98828 0.0117188H14.0117Z" fill="#8083A3"/>
</svg>
