<svg width="14" height="9" viewBox="0 0 14 9" fill="none" xmlns="http://www.w3.org/2000/svg">
<path d="M10.7617 3.375L13.75 0.386719V8.61328L10.7617 5.625V8.26172C10.7617 8.47266 10.6797 8.64844 10.5156 8.78906C10.375 8.92969 10.1992 9 9.98828 9H0.988281C0.777344 9 0.601562 8.92969 0.460938 8.78906C0.320312 8.64844 0.25 8.47266 0.25 8.26172V0.738281C0.25 0.527344 0.320312 0.351562 0.460938 0.210938C0.601562 0.0703125 0.777344 0 0.988281 0H9.98828C10.1992 0 10.375 0.0703125 10.5156 0.210938C10.6797 0.351562 10.7617 0.527344 10.7617 0.738281V3.375Z" fill="#8083A3"/>
</svg>
