<svg width="79" height="18" viewBox="0 0 79 18" fill="none" xmlns="http://www.w3.org/2000/svg">
<path fill-rule="evenodd" clip-rule="evenodd" d="M72.1364 17.1818V0.295471H69.3295V17.1818H72.1364ZM7.59658 16.875C6.98673 17.178 6.28408 17.3296 5.48862 17.3296C4.70074 17.3296 4.02271 17.1762 3.45453 16.8693C2.88635 16.5625 2.39771 16.1099 1.98862 15.5114L1.92044 16.8977C1.89771 17.0871 1.79544 17.1818 1.61362 17.1818H0.954529V0.647745H2.04544V7.85229C2.54544 7.18562 3.12498 6.65911 3.78407 6.27275C4.44317 5.88638 5.18559 5.6932 6.01135 5.6932C7.39771 5.6932 8.47915 6.17237 9.25567 7.1307C10.0322 8.08903 10.4204 9.53032 10.4204 11.4546C10.4204 12.2803 10.3125 13.0512 10.0966 13.7671C9.88067 14.483 9.56249 15.1042 9.14203 15.6307C8.72158 16.1572 8.20642 16.572 7.59658 16.875ZM3.47726 16.0852C3.99999 16.3466 4.60226 16.4773 5.28408 16.4773C5.95074 16.4773 6.53408 16.3561 7.03408 16.1137C7.53408 15.8712 7.95264 15.5284 8.28976 15.0852C8.62688 14.6421 8.88067 14.1118 9.05112 13.4943C9.22158 12.8769 9.3068 12.197 9.3068 11.4546C9.3068 9.77274 8.9962 8.536 8.37499 7.74434C7.75377 6.95267 6.86362 6.55684 5.70453 6.55684C4.95453 6.55684 4.2765 6.75002 3.67044 7.13638C3.06438 7.52274 2.52271 8.06062 2.04544 8.75002V14.7159C2.47726 15.3674 2.95453 15.8239 3.47726 16.0852ZM18.0341 17.3296C18.4583 17.3296 18.8807 17.2879 19.3011 17.2046C19.7216 17.1212 20.1155 17.0095 20.4829 16.8693C20.8504 16.7292 21.1837 16.5606 21.4829 16.3637C21.7822 16.1667 22.0227 15.9546 22.2045 15.7273L21.9091 15.3637C21.856 15.2879 21.7803 15.25 21.6818 15.25C21.606 15.25 21.4848 15.3125 21.3182 15.4375C21.1515 15.5625 20.9261 15.7027 20.642 15.858C20.3579 16.0133 20.0076 16.1534 19.5909 16.2784C19.1742 16.4034 18.6818 16.4659 18.1136 16.4659C17.4773 16.4659 16.9015 16.3561 16.3863 16.1364C15.8712 15.9167 15.4318 15.589 15.0682 15.1534C14.7045 14.7178 14.4242 14.178 14.2273 13.5341C14.0303 12.8902 13.9318 12.144 13.9318 11.2955V11.0796H22.1023C22.2083 11.0796 22.286 11.0493 22.3352 10.9887C22.3845 10.928 22.4091 10.8144 22.4091 10.6477C22.4091 9.85229 22.2973 9.14775 22.0738 8.53411C21.8504 7.92047 21.5398 7.40343 21.142 6.98297C20.7443 6.56252 20.2746 6.24244 19.7329 6.02275C19.1913 5.80305 18.6023 5.6932 17.9659 5.6932C17.1629 5.6932 16.4451 5.83335 15.8125 6.11366C15.1799 6.39396 14.6458 6.78222 14.2102 7.27843C13.7746 7.77464 13.4413 8.36555 13.2102 9.05116C12.9792 9.73676 12.8636 10.4849 12.8636 11.2955C12.8636 12.2576 12.9867 13.1118 13.2329 13.858C13.4792 14.6042 13.8295 15.2349 14.2841 15.75C14.7386 16.2652 15.2841 16.6572 15.9204 16.9262C16.5568 17.1951 17.2613 17.3296 18.0341 17.3296ZM13.9773 10.3864H21.4318C21.4318 9.78032 21.3485 9.23676 21.1818 8.7557C21.0151 8.27464 20.7803 7.86744 20.4773 7.53411C20.1742 7.20077 19.8106 6.94509 19.3863 6.76706C18.9621 6.58903 18.4924 6.50002 17.9773 6.50002C17.3939 6.50002 16.8712 6.59093 16.4091 6.77274C15.947 6.95456 15.5473 7.21593 15.2102 7.55684C14.8731 7.89774 14.6004 8.30684 14.392 8.78411C14.1837 9.26138 14.0454 9.79547 13.9773 10.3864ZM28.8636 17.3637C29.3409 17.3637 29.8011 17.2671 30.2443 17.0739C30.6875 16.8807 31.053 16.625 31.3409 16.3068L31.0454 15.8296C30.9848 15.7538 30.9242 15.7159 30.8636 15.7159C30.8106 15.7159 30.7386 15.7557 30.6477 15.8352C30.5568 15.9148 30.4394 16.0019 30.2954 16.0966C30.1515 16.1913 29.981 16.2784 29.7841 16.358C29.5871 16.4375 29.3523 16.4773 29.0795 16.4773C28.8598 16.4773 28.6553 16.4432 28.4659 16.375C28.2765 16.3068 28.1117 16.2008 27.9716 16.0568C27.8314 15.9129 27.7216 15.7292 27.642 15.5057C27.5625 15.2822 27.5227 15.0152 27.5227 14.7046V7.03411H31.0795V6.22729H27.5227V1.90911H27.0113C26.928 1.90911 26.8617 1.93562 26.8125 1.98865C26.7632 2.04168 26.7348 2.10229 26.7273 2.17047L26.4545 6.21593L24.5227 6.35229V6.77274C24.5227 6.85608 24.5492 6.92047 24.6023 6.96593C24.6553 7.01138 24.7235 7.03411 24.8068 7.03411H26.4318V14.7614C26.4318 15.6477 26.6458 16.303 27.0738 16.7273C27.5019 17.1515 28.0985 17.3637 28.8636 17.3637ZM38 17.233C37.6136 17.3201 37.1894 17.3637 36.7273 17.3637C36.3409 17.3637 35.9659 17.3068 35.6023 17.1932C35.2386 17.0796 34.9167 16.9053 34.6364 16.6705C34.3561 16.4356 34.1307 16.1345 33.9602 15.7671C33.7898 15.3996 33.7045 14.9584 33.7045 14.4432C33.7045 13.9659 33.8409 13.5227 34.1136 13.1137C34.3864 12.7046 34.8125 12.3485 35.392 12.0455C35.9716 11.7424 36.7178 11.5 37.6307 11.3182C38.5435 11.1364 39.6401 11.0303 40.9204 11V9.8182C40.9204 8.77275 40.6951 7.96782 40.2443 7.40343C39.7935 6.83903 39.125 6.55684 38.2386 6.55684C37.6932 6.55684 37.2292 6.63259 36.8466 6.78411C36.464 6.93563 36.1401 7.10229 35.875 7.28411C35.6098 7.46593 35.3939 7.63259 35.2273 7.78411C35.0606 7.93563 34.9204 8.01138 34.8068 8.01138C34.6553 8.01138 34.5417 7.9432 34.4659 7.80684L34.2727 7.47729C34.8636 6.88638 35.4848 6.43941 36.1364 6.13638C36.7879 5.83335 37.5265 5.68184 38.3523 5.68184C38.9583 5.68184 39.4886 5.77843 39.9432 5.97161C40.3977 6.16479 40.7746 6.44131 41.0738 6.80116C41.3731 7.161 41.5985 7.59661 41.75 8.10797C41.9015 8.61934 41.9773 9.18941 41.9773 9.8182V17.1818H41.5454C41.3182 17.1818 41.178 17.0758 41.125 16.8637L40.9659 15.4205C40.6553 15.7235 40.3466 15.9962 40.0398 16.2387C39.7329 16.4811 39.4129 16.6856 39.0795 16.8523C38.7462 17.019 38.3863 17.1459 38 17.233ZM37 16.5796C36.7045 16.5796 36.4204 16.5379 36.1477 16.4546C35.875 16.3712 35.6363 16.2405 35.4318 16.0625C35.2273 15.8845 35.0625 15.6572 34.9375 15.3807C34.8125 15.1042 34.75 14.7765 34.75 14.3977C34.75 13.9962 34.8693 13.6383 35.1079 13.3239C35.3466 13.0095 35.7178 12.7387 36.2216 12.5114C36.7254 12.2841 37.3655 12.1042 38.142 11.9716C38.9185 11.839 39.8447 11.7576 40.9204 11.7273V14.6705C40.6553 14.9432 40.3863 15.197 40.1136 15.4318C39.8409 15.6667 39.5473 15.8693 39.2329 16.0398C38.9185 16.2102 38.5776 16.3428 38.2102 16.4375C37.8428 16.5322 37.4394 16.5796 37 16.5796ZM51.1932 17.2614C50.7765 17.322 50.3636 17.3523 49.9545 17.3523C49.2348 17.3523 48.5568 17.2178 47.9204 16.9489C47.2841 16.6799 46.7292 16.2879 46.2557 15.7727C45.7822 15.2576 45.4072 14.6269 45.1307 13.8807C44.8542 13.1345 44.7159 12.2841 44.7159 11.3296C44.7159 10.4735 44.839 9.67994 45.0852 8.94888C45.3314 8.21782 45.6932 7.58524 46.1704 7.05115C46.6477 6.51706 47.2386 6.0985 47.9432 5.79547C48.6477 5.49244 49.4583 5.34093 50.375 5.34093C51.2462 5.34093 52.0095 5.48108 52.6648 5.76138C53.3201 6.04168 53.9091 6.4432 54.4318 6.96593L53.6932 7.98865C53.6098 8.09471 53.5284 8.17805 53.4488 8.23865C53.3693 8.29926 53.2538 8.32956 53.1023 8.32956C52.9583 8.32956 52.8182 8.286 52.6818 8.19888C52.5454 8.11176 52.3826 8.01327 52.1932 7.90343C52.0038 7.79358 51.7784 7.69509 51.517 7.60797C51.2557 7.52085 50.9318 7.47729 50.5454 7.47729C50.053 7.47729 49.6212 7.5663 49.25 7.74433C48.8788 7.92236 48.5701 8.17805 48.3238 8.51138C48.0776 8.84471 47.8939 9.24812 47.7727 9.72161C47.6515 10.1951 47.5909 10.7311 47.5909 11.3296C47.5909 11.9508 47.6572 12.5038 47.7898 12.9887C47.9223 13.4735 48.1136 13.8807 48.3636 14.2102C48.6136 14.5398 48.9167 14.7898 49.2727 14.9602C49.6288 15.1307 50.0303 15.2159 50.4773 15.2159C50.9242 15.2159 51.286 15.161 51.5625 15.0512C51.839 14.9413 52.072 14.8201 52.2613 14.6875C52.4507 14.5549 52.6155 14.4337 52.7557 14.3239C52.8958 14.214 53.053 14.1591 53.2273 14.1591C53.4545 14.1591 53.625 14.2462 53.7386 14.4205L54.5454 15.4432C54.2348 15.8068 53.8977 16.1118 53.5341 16.358C53.1704 16.6042 52.7935 16.8012 52.4034 16.9489C52.0132 17.0966 51.6098 17.2008 51.1932 17.2614ZM59.6023 17.3637C60.0189 17.3637 60.3977 17.3296 60.7386 17.2614C61.0795 17.1932 61.4015 17.0909 61.7045 16.9546C62.0076 16.8182 62.3011 16.6496 62.5852 16.4489C62.8693 16.2481 63.1591 16.0152 63.4545 15.75L63.7045 16.5796C63.7803 16.822 63.8939 16.983 64.0454 17.0625C64.197 17.1421 64.4053 17.1818 64.6704 17.1818H65.9318V9.8182C65.9318 9.15911 65.8352 8.55305 65.642 8.00002C65.4488 7.44699 65.1666 6.97161 64.7954 6.57388C64.4242 6.17615 63.9716 5.86555 63.4375 5.64206C62.9034 5.41858 62.2954 5.30684 61.6136 5.30684C59.7197 5.30684 58.1023 5.92047 56.7613 7.14774L57.2727 8.04547C57.356 8.18941 57.4659 8.31062 57.6023 8.40911C57.7386 8.50759 57.9015 8.55684 58.0909 8.55684C58.3182 8.55684 58.5265 8.50381 58.7159 8.39774C58.9053 8.29168 59.1117 8.17237 59.3352 8.03979C59.5587 7.90721 59.8219 7.7879 60.125 7.68184C60.428 7.57577 60.8068 7.52274 61.2613 7.52274C61.8901 7.52274 62.3693 7.71024 62.6988 8.08524C63.0284 8.46024 63.1932 9.0379 63.1932 9.8182V10.5C61.8674 10.5303 60.7576 10.6591 59.8636 10.8864C58.9697 11.1137 58.2538 11.3996 57.7159 11.7443C57.178 12.089 56.7935 12.4754 56.5625 12.9034C56.3314 13.3315 56.2159 13.7652 56.2159 14.2046C56.2159 14.7273 56.2992 15.1856 56.4659 15.5796C56.6326 15.9735 56.8655 16.303 57.1648 16.5682C57.464 16.8334 57.8219 17.0322 58.2386 17.1648C58.6553 17.2974 59.1098 17.3637 59.6023 17.3637ZM59.3352 15.1137C59.6269 15.3258 60.0076 15.4318 60.4773 15.4318C60.7651 15.4318 61.0303 15.4053 61.2727 15.3523C61.5151 15.2993 61.7443 15.2197 61.9602 15.1137C62.1761 15.0076 62.3845 14.8769 62.5852 14.7216C62.786 14.5663 62.9886 14.3826 63.1932 14.1705V12.2046C62.375 12.2424 61.6913 12.3125 61.142 12.4148C60.5928 12.5171 60.1515 12.6477 59.8182 12.8068C59.4848 12.9659 59.2481 13.1515 59.1079 13.3637C58.9678 13.5758 58.8977 13.8068 58.8977 14.0568C58.8977 14.5493 59.0435 14.9015 59.3352 15.1137ZM78.75 0.295471V17.1818H75.9432V0.295471H78.75Z" fill="#1A1C1D"/>
</svg>
