<svg width="20" height="20" viewBox="0 0 20 20" fill="none" xmlns="http://www.w3.org/2000/svg">
<path d="M11.2891 15.5859C13.2083 15.2135 14.168 14.2539 14.168 12.707C14.168 10.9596 12.8789 9.75651 10.3008 9.09766C8.69661 8.69661 7.89453 8.10938 7.89453 7.33594C7.89453 6.90625 8.08073 6.54818 8.45312 6.26172C8.85417 5.97526 9.39844 5.83203 10.0859 5.83203C11.375 5.83203 12.0482 6.40495 12.1055 7.55078H13.9102C13.8529 5.91797 12.9792 4.88672 11.2891 4.45703V2.65234H8.83984V4.45703C8.00911 4.62891 7.32161 4.97266 6.77734 5.48828C6.26172 5.97526 6.00391 6.60547 6.00391 7.37891C6.00391 8.98307 7.27865 10.1003 9.82812 10.7305C11.4609 11.1029 12.2773 11.7617 12.2773 12.707C12.2773 13.0794 12.1055 13.4232 11.7617 13.7383C11.4466 14.0247 10.888 14.168 10.0859 14.168C8.56771 14.168 7.7513 13.5951 7.63672 12.4492H5.83203C5.91797 14.082 6.92057 15.1133 8.83984 15.543V17.3477H11.2891V15.5859ZM3.51172 3.55469C5.31641 1.75 7.47917 0.847656 10 0.847656C12.5208 0.847656 14.6693 1.75 16.4453 3.55469C18.25 5.33073 19.1523 7.47917 19.1523 10C19.1523 12.5208 18.25 14.6836 16.4453 16.4883C14.6693 18.2643 12.5208 19.1523 10 19.1523C7.47917 19.1523 5.31641 18.2643 3.51172 16.4883C1.73568 14.6836 0.847656 12.5208 0.847656 10C0.847656 7.47917 1.73568 5.33073 3.51172 3.55469Z" fill="#8083A3"/>
</svg>
