<svg id="SvgjsSvg1001" width="288" height="288" xmlns="http://www.w3.org/2000/svg" version="1.1" xmlns:xlink="http://www.w3.org/1999/xlink" xmlns:svgjs="http://svgjs.com/svgjs"><defs id="SvgjsDefs1002"></defs><g id="SvgjsG1008"><svg xmlns="http://www.w3.org/2000/svg" fill="none" viewBox="0 0 16 14" width="288" height="288"><path fill="#8083a3" d="M12.5 9.25V10.7617H10.9883V9.25H12.5ZM12.5 6.26172V7.73828H10.9883V6.26172H12.5ZM14.0117 12.2383V4.75H8V6.26172H9.51172V7.73828H8V9.25H9.51172V10.7617H8V12.2383H14.0117ZM6.48828 3.23828V1.76172H5.01172V3.23828H6.48828ZM6.48828 6.26172V4.75H5.01172V6.26172H6.48828ZM6.48828 9.25V7.73828H5.01172V9.25H6.48828ZM6.48828 12.2383V10.7617H5.01172V12.2383H6.48828ZM3.5 3.23828V1.76172H1.98828V3.23828H3.5ZM3.5 6.26172V4.75H1.98828V6.26172H3.5ZM3.5 9.25V7.73828H1.98828V9.25H3.5ZM3.5 12.2383V10.7617H1.98828V12.2383H3.5ZM8 3.23828H15.4883V13.75H0.511719V0.25H8V3.23828Z" class="color1A1C1D svgShape"></path></svg></g></svg>