<svg width="15" height="13" viewBox="0 0 15 13" fill="none" xmlns="http://www.w3.org/2000/svg">
<path d="M9.01172 1.67477V3.15134H0.0117188V1.67477H2.26172L3 0.901337H5.98828L6.76172 1.67477H9.01172ZM0.75 11.4131V3.92477H8.23828V11.4131C8.23828 11.8115 8.08594 12.1631 7.78125 12.4677C7.5 12.7724 7.16016 12.9248 6.76172 12.9248H2.26172C1.86328 12.9248 1.51172 12.7724 1.20703 12.4677C0.902344 12.1631 0.75 11.8115 0.75 11.4131ZM9.75 6.91306H14.25V8.42477H9.75V6.91306ZM9.75 3.92477H14.9883V5.40134H9.75V3.92477ZM9.75 9.90134H12.7383V11.4131H9.75V9.90134Z" fill="#8083A3"/>
</svg>
