<svg width="14" height="15" viewBox="0 0 14 15" fill="none" xmlns="http://www.w3.org/2000/svg">
<path d="M7 14.837C8.26389 14.837 9.43866 14.521 10.5243 13.889C11.5938 13.2733 12.4363 12.4307 13.0521 11.3613C13.684 10.2756 14 9.10085 14 7.83696C14 7.36705 13.9514 6.89714 13.8542 6.42724L13.8299 6.2814H7V8.61474H11.6667C11.537 9.3439 11.2494 10.0042 10.8038 10.5956C10.3582 11.1871 9.80324 11.6529 9.13889 11.9932C8.47454 12.3335 7.76157 12.5036 7 12.5036C6.15741 12.5036 5.37963 12.293 4.66667 11.8717C3.9537 11.4504 3.38657 10.8833 2.96528 10.1703C2.54398 9.45733 2.33333 8.67955 2.33333 7.83696C2.33333 6.99437 2.54398 6.21659 2.96528 5.50363C3.38657 4.79066 3.9537 4.22353 4.66667 3.80224C5.37963 3.38094 6.15741 3.17029 7 3.17029C7.56713 3.17029 8.114 3.27157 8.64062 3.47411C9.16725 3.67666 9.6331 3.95617 10.0382 4.31265L11.7153 2.65988C11.0833 2.09275 10.3623 1.64715 9.55208 1.32307C8.7419 0.998997 7.8912 0.83696 7 0.83696C5.73611 0.83696 4.56134 1.15293 3.47569 1.78488C2.40625 2.40062 1.56366 3.24321 0.947917 4.31265C0.315972 5.3983 0 6.57307 0 7.83696C0 9.10085 0.315972 10.2756 0.947917 11.3613C1.56366 12.4307 2.40625 13.2733 3.47569 13.889C4.56134 14.521 5.73611 14.837 7 14.837Z" fill="#8083A3"/>
</svg>
