<svg id="SvgjsSvg1011" width="288" height="288" xmlns="http://www.w3.org/2000/svg" version="1.1" xmlns:xlink="http://www.w3.org/1999/xlink" xmlns:svgjs="http://svgjs.com/svgjs"><defs id="SvgjsDefs1012"></defs><g id="SvgjsG1013"><svg xmlns="http://www.w3.org/2000/svg" fill="none" viewBox="0 0 16 8" width="288" height="288"><path fill="#1a1c1d" d="M11.7617 0.238281C12.793 0.238281 13.6719 0.613281 14.3984 1.36328C15.125 2.08984 15.4883 2.96875 15.4883 4C15.4883 5.03125 15.125 5.92188 14.3984 6.67188C13.6719 7.39844 12.793 7.76172 11.7617 7.76172H8.73828V6.32031H11.7617C12.3945 6.32031 12.9336 6.09766 13.3789 5.65234C13.8477 5.18359 14.082 4.63281 14.082 4C14.082 3.36719 13.8477 2.82813 13.3789 2.38281C12.9336 1.91406 12.3945 1.67969 11.7617 1.67969H8.73828V0.238281H11.7617ZM5.01172 4.73828V3.26172H10.9883V4.73828H5.01172ZM2.58594 2.38281C2.14062 2.82813 1.91797 3.36719 1.91797 4C1.91797 4.63281 2.14062 5.18359 2.58594 5.65234C3.05469 6.09766 3.60547 6.32031 4.23828 6.32031H7.26172V7.76172H4.23828C3.20703 7.76172 2.32812 7.39844 1.60156 6.67188C0.875 5.92188 0.511719 5.03125 0.511719 4C0.511719 2.96875 0.875 2.08984 1.60156 1.36328C2.32812 0.613281 3.20703 0.238281 4.23828 0.238281H7.26172V1.67969H4.23828C3.60547 1.67969 3.05469 1.91406 2.58594 2.38281Z" class="color8083A3 svgShape"></path></svg></g></svg>