<svg id="SvgjsSvg1001" width="288" height="288" xmlns="http://www.w3.org/2000/svg" version="1.1" xmlns:xlink="http://www.w3.org/1999/xlink" xmlns:svgjs="http://svgjs.com/svgjs"><defs id="SvgjsDefs1002"></defs><g id="SvgjsG1008"><svg xmlns="http://www.w3.org/2000/svg" fill="none" viewBox="0 0 14 14" width="288" height="288"><path fill="#1a1c1d" d="M3.02734 9.35547C4.41016 8.79297 5.73438 8.51172 7 8.51172C8.26562 8.51172 9.57812 8.79297 10.9375 9.35547C12.3203 9.89453 13.0117 10.6094 13.0117 11.5V13.0117H0.988281V11.5C0.988281 10.6094 1.66797 9.89453 3.02734 9.35547ZM9.10938 6.12109C8.52344 6.70703 7.82031 7 7 7C6.17969 7 5.47656 6.70703 4.89062 6.12109C4.30469 5.53516 4.01172 4.83203 4.01172 4.01172C4.01172 3.19141 4.30469 2.48828 4.89062 1.90234C5.47656 1.29297 6.17969 0.988281 7 0.988281C7.82031 0.988281 8.52344 1.29297 9.10938 1.90234C9.69531 2.48828 9.98828 3.19141 9.98828 4.01172C9.98828 4.83203 9.69531 5.53516 9.10938 6.12109Z" class="color8083A3 svgShape"></path></svg></g></svg>