<svg width="16" height="15" viewBox="0 0 16 15" fill="none" xmlns="http://www.w3.org/2000/svg">
<path d="M11.7617 8.23828V6.76172H8.73828V3.73828H7.26172V6.76172H4.23828V8.23828H7.26172V11.2617H8.73828V8.23828H11.7617ZM2.69141 2.22656C4.16797 0.75 5.9375 0.0117188 8 0.0117188C10.0625 0.0117188 11.8203 0.75 13.2734 2.22656C14.75 3.67969 15.4883 5.4375 15.4883 7.5C15.4883 9.5625 14.75 11.332 13.2734 12.8086C11.8203 14.2617 10.0625 14.9883 8 14.9883C5.9375 14.9883 4.16797 14.2617 2.69141 12.8086C1.23828 11.332 0.511719 9.5625 0.511719 7.5C0.511719 5.4375 1.23828 3.67969 2.69141 2.22656Z" fill="#8083A3"/>
</svg>
