<svg width="18" height="15" viewBox="0 0 18 15" fill="none" xmlns="http://www.w3.org/2000/svg">
<path d="M15.0469 0.511719C16.5 2.03516 17.2266 3.80469 17.2266 5.82031C17.2266 7.8125 16.5 9.53516 15.0469 10.9883L13.8164 9.79297C14.8477 8.59766 15.3633 7.23828 15.3633 5.71484C15.3633 4.16797 14.8477 2.83203 13.8164 1.70703L15.0469 0.511719ZM12.5859 3.00781C13.3359 3.82812 13.7109 4.75391 13.7109 5.78516C13.7109 6.81641 13.3359 7.70703 12.5859 8.45703L11.3203 7.19141C11.6484 6.74609 11.8125 6.26563 11.8125 5.75C11.8125 5.21094 11.6484 4.71875 11.3203 4.27344L12.5859 3.00781ZM2.77734 11.0938C4.16016 10.5312 5.48438 10.25 6.75 10.25C8.01562 10.25 9.32812 10.5312 10.6875 11.0938C12.0703 11.6328 12.7617 12.3477 12.7617 13.2383V14.75H0.738281V13.2383C0.738281 12.3477 1.41797 11.6328 2.77734 11.0938ZM4.64062 7.85938C4.05469 7.27344 3.76172 6.57031 3.76172 5.75C3.76172 4.92969 4.05469 4.22656 4.64062 3.64062C5.22656 3.05469 5.92969 2.76172 6.75 2.76172C7.57031 2.76172 8.27344 3.05469 8.85938 3.64062C9.44531 4.22656 9.73828 4.92969 9.73828 5.75C9.73828 6.57031 9.44531 7.27344 8.85938 7.85938C8.27344 8.44531 7.57031 8.73828 6.75 8.73828C5.92969 8.73828 5.22656 8.44531 4.64062 7.85938Z" fill="#1A1C1D"/>
</svg>
