<svg width="16" height="14" viewBox="0 0 16 14" fill="none" xmlns="http://www.w3.org/2000/svg">
<path d="M14.3437 3.33697C14.3645 3.4203 14.375 3.55572 14.375 3.74322C14.375 5.24321 14.0104 6.69113 13.2812 8.08696C12.5312 9.56612 11.4791 10.7432 10.125 11.6182C8.64581 12.5974 6.9479 13.0869 5.03124 13.0869C3.19791 13.0869 1.52083 12.5974 0 11.6182C0.229166 11.639 0.489582 11.6494 0.781248 11.6494C2.30208 11.6494 3.66666 11.1807 4.87499 10.2432C4.14582 10.2432 3.5052 10.0297 2.95312 9.60258C2.40104 9.1755 2.02083 8.63904 1.8125 7.99321C2.02083 8.01404 2.21874 8.02446 2.40624 8.02446C2.69791 8.02446 2.98958 7.99321 3.28124 7.93071C2.53124 7.76404 1.90625 7.37862 1.40625 6.77446C0.906248 6.17029 0.656248 5.4828 0.656248 4.71196V4.64946C1.11458 4.9203 1.60416 5.06613 2.12499 5.08696C1.6875 4.77446 1.33333 4.37863 1.0625 3.89947C0.791665 3.4203 0.656248 2.89426 0.656248 2.32134C0.656248 1.74843 0.812498 1.20156 1.125 0.680724C1.9375 1.70155 2.93228 2.51405 4.10936 3.11822C5.28645 3.72238 6.54165 4.05572 7.87498 4.11822C7.83331 3.86822 7.81248 3.61822 7.81248 3.36822C7.81248 2.78489 7.95831 2.23801 8.24998 1.7276C8.54165 1.21718 8.93748 0.81614 9.43748 0.524474C9.93748 0.232808 10.4791 0.0869751 11.0625 0.0869751C11.5416 0.0869751 11.9843 0.180725 12.3906 0.368224C12.7968 0.555724 13.1562 0.805723 13.4687 1.11822C14.2187 0.972389 14.9166 0.711974 15.5625 0.336975C15.3125 1.10781 14.8333 1.71197 14.125 2.14947C14.75 2.06614 15.375 1.88905 16 1.61822C15.5416 2.28489 14.9895 2.8578 14.3437 3.33697Z" fill="#8083A3"/>
</svg>
