<svg width="244" height="196" viewBox="0 0 244 196" fill="none" xmlns="http://www.w3.org/2000/svg">
<g id="undraw_real_time_collaboration_c62i">
<path id="Path" d="M135 54.5C135 24.4005 159.401 0 189.5 0C219.6 0 244 24.4005 244 54.5C244 84.5995 219.6 109 189.5 109C180.339 109.013 171.325 106.707 163.296 102.296C159.529 104.976 150.338 110.323 141.259 106.471L152.188 94.2203C141.206 83.931 134.983 69.5487 135 54.5Z" fill="#F6933E"/>
<path id="Path_2" opacity="0.1" d="M234.418 54.5C234.418 26.0241 212.694 2.65321 185 0.214297C186.579 0.0752408 188.176 0 189.791 0C219.73 0 244 24.4005 244 54.5C244 84.5995 219.73 109 189.791 109C188.179 109 186.584 108.924 185.008 108.785C212.698 106.343 234.418 82.9733 234.418 54.5Z" fill="black"/>
<path id="Path_3" d="M119 123.5C119 93.4005 94.5995 69 64.5 69C34.4005 69 10 93.4005 10 123.5C10 153.599 34.4005 178 64.5 178C73.6606 178.013 82.6755 175.707 90.704 171.296C94.4714 173.976 103.662 179.323 112.741 175.471L101.812 163.22C112.794 152.931 119.017 138.549 119 123.5Z" stroke="#E6E6E6" stroke-width="4"/>
<path id="Path_4" opacity="0.1" d="M19.5824 123.5C19.5824 95.0241 41.306 71.6532 69 69.2143C67.421 69.0752 65.8237 69 64.2088 69C34.2701 69 10 93.4005 10 123.5C10 153.6 34.2701 178 64.2088 178C65.8213 178 67.4158 177.924 68.9924 177.785C41.302 175.343 19.5824 151.973 19.5824 123.5Z" fill="black"/>
<path id="Path_5" d="M202.915 36.4217C199.298 30.308 192.14 30.0231 192.14 30.0231C192.14 30.0231 185.166 29.131 180.692 38.4423C176.522 47.1212 170.767 55.5009 179.766 57.5326L181.391 52.4726L182.398 57.9093C183.679 58.0014 184.964 58.0234 186.248 57.9751C195.885 57.6639 205.063 58.0661 204.767 54.6074C204.374 50.0095 206.396 42.3044 202.915 36.4217Z" fill="#2F2E41"/>
<path id="Path_6" d="M179.447 89.1561C179.342 89.8168 179.189 90.4692 178.99 91.1083C178.766 91.7339 178.421 92.3124 178.216 92.9444C177.563 94.959 178.468 97.2051 179.913 98.7601C181.167 100.103 182.785 101.057 184.573 101.508C185.889 101.787 187.231 101.927 188.577 101.926C192.298 102.051 196.115 102.163 199.642 100.975C200.756 100.591 201.832 100.105 202.856 99.5249C203.18 99.3719 203.465 99.1491 203.691 98.8727C203.927 98.4679 204.032 98.0007 203.992 97.5346C203.984 95.9679 203.664 94.4092 203.74 92.8443C203.782 91.9775 203.945 91.1114 203.865 90.2472C203.637 88.2363 202.161 86.5846 200.178 86.1202C199.177 85.9069 198.14 86.0231 197.121 86.1204C194.478 86.3726 191.823 86.4905 189.167 86.4736C186.454 86.4564 183.757 86.045 181.057 86.0021C180.259 85.9894 180.275 86.2338 180.021 87.0012C179.786 87.7076 179.595 88.4271 179.447 89.1561Z" fill="#2F2E41"/>
<path id="Path_7" d="M187.216 51.2311C187.087 51.9095 186.947 52.6128 186.54 53.1703C186.072 53.8117 185.309 54.1783 184.805 54.7921C184.047 55.7162 184.003 57.0164 184 58.2126C183.997 59.3145 184.02 60.4898 184.633 61.4044C185.069 61.9726 185.611 62.4512 186.229 62.8139C188.529 64.3669 191.014 65.9477 193.787 65.9989C194.936 66.0202 196.168 65.7229 196.924 64.8557C197.251 64.4484 197.507 63.9896 197.684 63.4981C198.393 61.7469 198.823 59.8948 198.958 58.0098C199.06 57.1236 198.977 56.2259 198.715 55.3733C198.378 54.4322 197.697 53.6579 197.247 52.7657C196.715 51.7047 196.52 50.5058 196.689 49.3305C196.711 49.2478 196.705 49.1598 196.67 49.0816C196.594 48.9967 196.484 48.9519 196.371 48.9605L190.873 48.5639C190.36 48.5384 189.851 48.4799 189.346 48.3889C189.049 48.3285 188.267 47.9067 187.984 48.0189C187.461 48.2265 187.323 50.6685 187.216 51.2311Z" fill="#A0616A"/>
<path id="Path_8" opacity="0.1" d="M187.216 51.2311C187.087 51.9095 186.947 52.6128 186.54 53.1703C186.072 53.8117 185.309 54.1783 184.805 54.7921C184.047 55.7162 184.003 57.0164 184 58.2126C183.997 59.3145 184.02 60.4898 184.633 61.4044C185.069 61.9726 185.611 62.4512 186.229 62.8139C188.529 64.3669 191.014 65.9477 193.787 65.9989C194.936 66.0202 196.168 65.7229 196.924 64.8557C197.251 64.4484 197.507 63.9896 197.684 63.4981C198.393 61.7469 198.823 59.8948 198.958 58.0098C199.06 57.1236 198.977 56.2259 198.715 55.3733C198.378 54.4322 197.697 53.6579 197.247 52.7657C196.715 51.7047 196.52 50.5058 196.689 49.3305C196.712 49.2478 196.705 49.1598 196.67 49.0816C196.594 48.9967 196.484 48.9519 196.371 48.9605L190.873 48.5639C190.36 48.5384 189.851 48.4799 189.346 48.3889C189.049 48.3285 188.267 47.9067 187.984 48.0189C187.461 48.2265 187.323 50.6685 187.216 51.2311Z" fill="black"/>
<path id="Oval" d="M192 52C196.418 52 200 48.4183 200 44C200 39.5817 196.418 36 192 36C187.582 36 184 39.5817 184 44C184 48.4183 187.582 52 192 52Z" fill="#A0616A"/>
<path id="Path_9" d="M187.86 61.4432C188.251 61.9097 188.723 62.2977 189.251 62.5876C189.801 62.822 190.392 62.9379 190.988 62.9283C192.415 62.9696 193.962 62.7003 194.954 61.6436C196.234 60.2815 196.192 58.0845 197.195 56.4954C197.275 56.3514 197.386 56.2271 197.518 56.1314C197.686 56.037 197.876 55.992 198.067 56.0012C199.334 55.989 200.438 56.8352 201.433 57.6417C201.902 57.9739 202.304 58.396 202.618 58.8848C202.815 59.2806 202.95 59.7059 203.018 60.1451C203.512 62.6299 203.672 65.1706 203.831 67.7018C203.918 69.0999 204.006 70.4993 204 71.9003C203.978 76.5159 202.937 81.0544 201.901 85.5451C201.767 86.1237 201.585 86.7705 201.074 87.0477C200.846 87.1531 200.602 87.2146 200.352 87.2291C197.386 87.5879 194.413 87.9472 191.427 87.9946C190.261 88.0131 189.096 87.984 187.932 87.9074C187.731 87.9047 187.533 87.869 187.343 87.8017C187.086 87.6745 186.865 87.4811 186.701 87.2403C185.086 85.1434 184.99 82.2444 185.001 79.5675C185.026 73.0228 185.253 66.4833 185.682 59.949C185.717 59.4096 185.725 58.7546 185.348 58.3303C186.082 59.4518 186.924 60.4946 187.86 61.4432Z" fill="white"/>
<path id="Path_10" d="M186.717 51.7318C186.439 52.2325 184.388 53.4756 183.991 53.8905C181.778 56.2088 177.739 56.1218 175.715 58.6049C175.003 59.4785 174.633 60.5762 174.361 61.6675C173.976 63.2109 173.771 64.8942 174.415 66.3495C175.036 67.7499 176.342 68.718 177.228 69.9689C178.202 71.3424 178.639 73.01 179.059 74.6375C179.369 75.8391 179.681 77.0705 179.56 78.3052C179.423 79.7089 178.739 80.9942 178.336 82.3464C177.932 83.6985 177.863 85.3089 178.796 86.3715C179.481 87.1522 180.557 87.4617 181.584 87.6357C182.901 87.8323 184.228 87.9472 185.559 87.9796C186.734 88.0312 188.029 88.0412 188.932 87.2927C189.645 86.7021 189.955 85.7437 189.995 84.8223C190.035 83.901 189.842 82.9878 189.721 82.0734C189.596 81.1256 189.548 80.1695 189.507 79.2143C189.327 74.9286 189.302 70.6402 189.433 66.349C189.5 65.4571 189.456 64.5605 189.302 63.6793C189.05 62.5314 188.426 61.5055 187.905 60.4508C186.864 58.4643 186.393 56.2316 186.542 53.9968C186.7 51.7001 187.708 49.9503 186.717 51.7318Z" fill="white"/>
<path id="Path_11" d="M197.788 52.6744C198.203 53.0996 199.613 53.2398 200.141 53.5136C200.637 53.7423 201.155 53.9211 201.687 54.0475C203.613 54.6013 205.444 55.4394 207.12 56.5338C207.469 56.737 207.777 57.0022 208.029 57.3163C208.295 57.7474 208.466 58.2296 208.532 58.7314C208.79 60.0079 209.05 61.2997 208.992 62.6007C208.93 63.9816 208.513 65.319 208.099 66.6383L206.553 71.5677C205.398 75.2472 204.237 78.9629 203.912 82.8046C203.732 84.9337 203.812 87.0767 204.15 89.1867C204.214 89.3943 204.186 89.6195 204.072 89.8048C203.97 89.9052 203.836 89.9667 203.693 89.9785C202.947 90.0949 202.224 89.7155 201.548 89.3797C199.481 88.3541 197.275 87.6345 195 87.2435C195.889 85.9625 196.575 84.5526 197.034 83.0634C197.294 82.1178 197.499 81.158 197.648 80.1886L198.368 76.0401C198.66 74.5238 198.866 72.9922 198.985 71.4526C199.039 70.8748 199.005 70.2922 198.885 69.7245C198.719 69.1842 198.499 68.6621 198.228 68.166C197.042 65.7071 196.486 62.9011 196.952 60.2127C197.156 59.0363 197.553 57.8582 197.388 56.6757C197.229 55.5387 197.394 54.6551 197.101 53.5299C195.9 48.91 197.007 51.8744 197.788 52.6744Z" fill="white"/>
<path id="Path_12" d="M175.933 63.3303C175.389 64.4652 174.479 65.432 174.169 66.6527C174.049 67.2232 173.997 67.8062 174.015 68.3891C173.962 69.2676 174.048 70.1491 174.272 71.0001C174.445 71.5384 174.726 72.0349 174.928 72.5626C175.211 73.2999 175.337 74.0884 175.298 74.8774C175.243 75.9706 174.874 77.0317 174.845 78.1258C174.799 79.8464 175.591 81.4639 176.364 83C176.758 82.0203 177.562 81.2651 178.561 80.9363C179.561 80.6076 180.653 80.7388 181.548 81.2949C181.725 81.0764 181.809 80.7966 181.781 80.5163C181.838 78.5201 181.893 76.5239 181.947 74.5276C182.03 71.4402 182.11 68.3115 181.403 65.3058C181.084 63.9487 180.587 62.5968 179.677 61.5442C179.198 60.9899 177.571 59.53 176.784 60.1509C176.43 60.4301 176.513 61.1902 176.456 61.5751C176.372 62.1835 176.195 62.7754 175.933 63.3303Z" fill="white"/>
<path id="Path_13" d="M208.707 59.918C208.932 60.7403 209.028 61.5914 208.993 62.4422C209.004 64.1762 208.98 65.91 208.923 67.6435C208.931 68.5326 208.816 69.4187 208.579 70.2768C208.399 70.8349 208.12 71.3582 207.934 71.9144C207.376 73.5812 207.681 75.389 207.729 77.1433C207.762 77.7111 207.713 78.2807 207.582 78.8348C207.288 79.9223 206.496 80.8011 205.943 81.7866C205.418 82.7225 205.101 83.7716 204.474 84.6447C203.847 85.5178 202.762 86.2096 201.71 85.9415C200.913 85.7385 200.346 85.0445 199.955 84.3321C199.1 82.7658 198.807 80.9616 199.125 79.2115C199.518 77.0822 200.79 75.1933 201.248 73.0767C201.878 70.1702 200.921 67.1709 200.949 64.1992C200.936 63.7334 201.001 63.2686 201.14 62.8231C201.38 62.1443 201.897 61.6022 202.374 61.0578C202.97 60.3775 203.524 59.6623 204.033 58.9162C204.375 58.415 204.839 57.1259 205.444 57.0188C206.797 56.7794 208.372 58.8903 208.707 59.918Z" fill="white"/>
<path id="Path_14" d="M168.551 88.2421C167.816 88.0588 167.059 87.9789 166.302 88.0048C164.693 88.0931 163.2 88.864 162.203 90.1211C161.206 91.3783 160.801 93.0004 161.092 94.5743C161.276 95.4171 161.575 96.2308 161.983 96.9921C162.579 98.1938 163.295 99.3927 164.399 100.163C165.064 100.586 165.78 100.925 166.53 101.17L172.345 103.346C173.2 103.665 174.056 103.986 174.919 104.282C179.259 105.772 183.784 106.665 188.367 106.937C189.762 107.067 191.168 106.996 192.543 106.727C192.875 106.684 193.18 106.52 193.398 106.268C193.509 106.076 193.574 105.862 193.589 105.641L193.947 103.154C194.027 102.808 194.016 102.447 193.916 102.106C193.752 101.688 193.342 101.425 192.95 101.201C189.127 99.0213 184.664 97.8185 181.447 94.8264C180.689 94.122 180.055 93.0054 179.135 92.5269C178.091 91.9843 176.862 91.6746 175.784 91.1747C173.425 90.0816 171.107 88.8255 168.551 88.2421Z" fill="#2F2E41"/>
<path id="Path_15" opacity="0.1" d="M174.635 91.5565C176.714 92.1792 185.495 96.4929 187 97.999C186.798 98.0685 179.954 94.4035 179.748 94.3446C177.866 93.8506 176.022 93.2298 174.231 92.487C173.875 92.3293 171.914 91.5886 172.003 91.1586C172.103 90.6734 174.266 91.446 174.635 91.5565Z" fill="black"/>
<path id="Path_16" d="M199.561 107.996C199.68 108.004 199.797 107.972 199.892 107.906C199.976 107.806 200.014 107.679 199.996 107.554L199.986 104.347C198.989 103.908 197.874 103.767 196.779 103.631L191.673 103C191.79 103.015 190.874 105.035 191.015 105.304C191.262 105.78 193.154 106.201 193.687 106.425C195.543 107.206 197.471 108.064 199.561 107.996Z" fill="#A0616A"/>
<path id="Path_17" d="M184.049 104.467C183.115 104.619 182.072 104.753 181.467 105.497C180.7 106.44 181.027 107.846 181.393 109.014C181.438 109.319 181.602 109.592 181.847 109.771C182.092 109.95 182.397 110.021 182.694 109.966C183.546 110.021 184.452 110.064 185.197 109.637C185.534 109.409 185.859 109.162 186.169 108.898C186.718 108.524 187.322 108.242 187.957 108.062C189.125 107.686 190.327 107.433 191.546 107.306C192.026 107.283 192.501 107.198 192.959 107.051C193.424 106.898 193.792 106.532 193.955 106.062C194.127 105.438 193.773 104.802 193.432 104.255C193.04 103.538 192.531 102.894 191.928 102.353C191.006 101.62 190.55 102.183 189.621 102.651C187.863 103.538 185.985 104.15 184.049 104.467Z" fill="#A0616A"/>
<path id="Path_18" d="M181.337 105.245L175.38 103.442C174.665 103.187 173.918 103.039 173.163 103.002C172.397 102.97 171.655 103.277 171.127 103.845C170.665 104.4 170.533 105.159 170.418 105.878L170.171 107.418C170.007 108.194 169.961 108.991 170.033 109.782C170.114 110.583 170.55 111.301 171.217 111.729C172.041 112.19 173.051 111.965 173.971 111.772C175.83 111.383 177.72 111.176 179.617 111.152C180.33 111.144 181.077 111.153 181.707 110.811C182.45 110.36 182.927 109.563 182.982 108.681C183.099 107.366 182.671 105.648 181.337 105.245Z" fill="#2F2E41"/>
<path id="Path_19" d="M202.412 103.238C203.149 103.099 203.8 102.647 204.507 102.38C205.502 102.005 206.58 102.005 207.634 102.009C208.021 101.971 208.411 102.055 208.755 102.251C209.219 102.584 209.338 103.251 209.417 103.846L209.894 107.438C210.021 108.108 210.034 108.798 209.932 109.473C209.793 110.138 209.372 110.78 208.759 110.952C208.015 111.16 207.286 110.648 206.583 110.311C204.828 109.47 202.786 109.685 200.956 109.056C200.602 108.98 200.295 108.743 200.113 108.407C200.051 108.207 200.028 107.996 200.048 107.786C200.079 106.632 199.853 105.055 200.176 103.952C200.466 102.96 201.588 103.238 202.412 103.238Z" fill="#2F2E41"/>
<path id="Path_20" d="M214.575 86.3152C215.753 86.0124 216.975 85.9268 218.182 86.0626C219.146 86.1715 220.14 86.4465 220.844 87.1306C221.7 87.9632 221.976 89.2509 221.999 90.4609C222.036 92.871 221.257 95.2197 219.792 97.1059C219.435 97.5829 219.01 98.0025 218.531 98.3505C218.015 98.6816 217.464 98.9535 216.89 99.1612L204.151 104.312C200.8 105.667 197.436 107.026 193.941 107.919C193.748 108.014 193.525 108.026 193.323 107.951C193.122 107.876 192.958 107.721 192.87 107.521C191.754 105.887 190.817 104.131 190.078 102.286C190.007 102.197 189.982 102.078 190.013 101.967C190.043 101.856 190.124 101.768 190.23 101.729L199.24 96.4226C199.901 96.0694 200.517 95.6344 201.074 95.1274C201.464 94.7405 201.783 94.2855 202.016 93.7837C202.203 93.3838 202.22 92.4401 202.459 92.1446C202.692 91.8552 203.491 91.8321 203.86 91.7183C204.381 91.5549 204.89 91.3574 205.386 91.127C207.402 90.2027 209.197 88.8598 211.129 87.7775C212.213 87.1424 213.371 86.651 214.575 86.3152Z" fill="#2F2E41"/>
<path id="Path_21" opacity="0.1" d="M209.956 90.9501C208.355 92.0697 206.283 93.0989 204.696 94.248C204.154 94.6402 195.128 99.3659 195 99.9936C196.48 100.226 205.909 94.0834 207.258 93.4704C208.608 92.8575 209.803 91.9932 210.989 91.1352C211.291 90.9166 212.57 90.2593 211.703 90.015C211.215 89.8774 210.317 90.7263 209.956 90.9501Z" fill="black"/>
<path id="Path_22" d="M198.907 52H185.242C184.086 52 183.148 52.957 183.148 54.1375V54.9202H183V56.6707H183.148V57.8961H183V58.9464H183.148V71.8625C183.148 73.043 184.086 74 185.242 74H198.907C200.063 74 201 73.043 201 71.8625V54.1375C201 52.957 200.063 52 198.907 52V52Z" fill="#D0CDE1"/>
<path id="Path_23" d="M200.667 36.5485L193.667 33L184 34.4517L182 43L186.979 42.8145L188.369 39.6741V42.7629L190.667 42.6774L192 37.6773L192.833 43L201 42.8386L200.667 36.5485Z" fill="#2F2E41"/>
<path id="Path_24" d="M177.424 85.4728C177.749 86.0098 178.211 86.4564 178.764 86.7696C179.5 87.0967 180.351 87.0745 181.068 86.7095C181.774 86.3409 182.353 85.7767 182.73 85.0882C183.51 83.748 183.672 82.1443 183.574 80.607C183.477 79.0697 183.14 77.5559 182.99 76.0226C182.882 74.908 182.873 73.7867 182.864 72.6671C182.837 72.4317 182.888 72.194 183.009 71.9885C183.218 71.7867 183.487 71.6556 183.779 71.6147C185.353 71.1595 186.398 69.7238 187.148 68.3018C187.648 67.3523 188.083 66.3144 187.986 65.2515C187.89 64.1887 187.105 63.1179 186.014 63.0095C185.114 62.9201 184.283 63.4759 183.635 64.0886C181.998 65.6437 180.946 67.689 180.648 69.8958C180.505 70.9765 180.546 72.0866 180.244 73.1357C179.599 75.3758 177.58 76.7493 176.574 78.765C175.466 80.986 176.078 83.5076 177.424 85.4728Z" fill="#A0616A"/>
<path id="Path_25" d="M205.714 77.4948C205.284 78.5392 204.467 79.3579 203.45 79.7649C202.824 80.0272 202.134 80.0713 201.482 79.8907C200.826 79.701 200.293 79.2034 200.04 78.5449C199.94 78.2177 199.885 77.8773 199.877 77.5341C199.784 76.0308 199.82 74.4817 200.343 73.0777C200.545 72.5361 200.817 72.0226 200.976 71.4658C201.133 70.8228 201.213 70.1621 201.215 69.4987L201.387 65.3969C201.415 65.0992 201.396 64.7985 201.329 64.5076C201.157 63.9141 200.625 63.5284 200.138 63.1744C198.96 62.3197 197.796 61.3222 197.225 59.9487C197.029 59.5351 196.959 59.0689 197.024 58.6125C197.185 57.798 197.972 57.2707 198.751 57.0931C199.78 56.8582 200.857 57.0722 201.731 57.6856C202.606 58.299 203.202 59.2585 203.383 60.3418C203.46 60.8047 203.459 61.2775 203.504 61.745C203.599 62.7366 203.901 63.6924 204.09 64.6693C204.555 67.0757 204.314 69.5633 204.773 71.9693C205.158 73.981 206.607 75.2936 205.714 77.4948Z" fill="#A0616A"/>
<path id="Oval_2" d="M192.5 62C193.328 62 194 61.3284 194 60.5C194 59.6716 193.328 59 192.5 59C191.672 59 191 59.6716 191 60.5C191 61.3284 191.672 62 192.5 62Z" fill="#F6933E"/>
<path id="Oval_3" d="M5 122C7.76142 122 10 119.761 10 117C10 114.239 7.76142 112 5 112C2.23858 112 0 114.239 0 117C0 119.761 2.23858 122 5 122Z" fill="#2F2E41"/>
<path id="Path_26" d="M23.6564 131.637L21.1111 129L16 130.692L16.4909 137L27 136.48L23.7716 131.804L23.6564 131.637Z" fill="#FBBEBE"/>
<path id="Oval_4" d="M18 132C22.4183 132 26 128.418 26 124C26 119.582 22.4183 116 18 116C13.5817 116 10 119.582 10 124C10 128.418 13.5817 132 18 132Z" fill="#FBBEBE"/>
<path id="Path_27" d="M68.606 143C68.606 143 78.858 160.22 81.2979 162.805C82.4582 164.077 83.6944 165.281 85 166.411C85 166.411 83.8528 170.129 82.026 169.997C80.9847 169.935 79.9636 169.689 79.0125 169.271C79.0125 169.271 78.1971 167.205 76.7749 166.299C75.3527 165.393 63.7331 154.221 64.0047 150.65C64.2763 147.079 68.606 143 68.606 143Z" fill="#2F2E41"/>
<path id="Path_28" d="M33 167.284C33 167.284 43.8022 175.749 58.4827 167.795L59.7479 166.855C59.7479 166.855 57.6128 171.704 57.4147 173.019C57.1851 174.543 51.6264 183.472 50.7193 183.9C49.8122 184.328 49.6123 184.723 49.6123 184.723L53.4618 189L54.8851 187.943C54.8851 187.943 60.4348 180.005 62.058 178.552C63.6812 177.1 71.4148 162.125 71.4148 162.125C71.4148 162.125 74.3716 156.483 66.9924 156.058C59.6131 155.634 56.2175 157.664 56.2175 157.664L43.1211 159.765L33 167.284Z" fill="#2F2E41"/>
<path id="Path_29" d="M85.6369 165L91.0004 168.907C91.0004 168.907 97.8431 171.164 93.6281 172.666C89.413 174.168 78.3055 174.712 78.0535 172.639C77.8015 170.567 78.4916 167.305 79.0457 167.483C79.5999 167.662 83.446 168.713 85.6369 165Z" fill="#2F2E41"/>
<path id="Path_30" d="M54.9263 186.596L55.9089 191.994C55.9089 191.994 58.7032 197.339 55.3482 195.681C51.9932 194.022 45.0811 187.722 46.1018 186.401C47.1225 185.08 49.3753 183.648 49.6041 184.078C49.8329 184.508 51.5261 187.39 54.9263 186.596Z" fill="#2F2E41"/>
<path id="Path_31" d="M45 161.235C45 161.235 37.7878 169.743 33.4091 167.676C29.0305 165.61 11.1166 141.673 13.162 137.249C15.2075 132.824 15.8933 133.766 15.8933 133.766L25.1429 134.63L22.4815 130.319C22.4815 130.319 23.7241 129.395 24.9082 130.692C26.0923 131.989 30.8462 135.228 32.5022 139.803C34.1583 144.378 39.0205 144.15 39.0205 144.15L45 161.235Z" fill="white"/>
<path id="Path_32" d="M74 143.581L61.3405 157L50 137.007L60.781 124L74 143.581Z" fill="#3F3D56"/>
<path id="Path_33" d="M74 144.254L62.4585 156L52 137.899L61.5914 126L74 144.254Z" fill="white"/>
<path id="Path_34" d="M61.3888 157L62 157.548L61.6081 158.378L44.1649 164L44 163.353L44.7936 162.464L61.3888 157Z" fill="#B3B3B3"/>
<path id="Path_35" d="M62 157.188L43.3617 163L32 141.587L50.3094 137L62 157.188Z" fill="#D0CDE1"/>
<path id="Path_36" d="M61 154.406L60.1734 155L51 139.433L51.9481 139L61 154.406Z" fill="#3F3D56"/>
<path id="Path_37" d="M59 154.735L51.0382 157L42 141.73L49.8766 140L59 154.735Z" fill="#3F3D56"/>
<path id="Path_38" d="M37.0126 143.667L38.6626 143.187C38.6626 143.187 47.8644 142.118 47.9987 145.089C48.1331 148.059 37.4275 146.681 37.4275 146.681L36 144.688L37.0126 143.667Z" fill="#FBBEBE"/>
<path id="Path_39" d="M44.9164 157L47.0573 156.016C47.0573 156.016 53.5196 152.771 51.6658 150.656C49.8119 148.542 44.0946 152.214 44.0946 152.214L43 153.376L44.9164 157Z" fill="#FBBEBE"/>
<path id="Path_40" d="M43.0431 152.468C43.0431 152.468 46.7111 156.062 45.8765 156.906C45.0418 157.75 31.3553 168.854 27.9625 165.301C24.5697 161.748 8.03968 143.91 14.4718 142.381C20.9039 140.851 22.6034 144.427 22.6034 144.427L31.0945 158.71L43.0431 152.468Z" fill="white"/>
<path id="Path_41" d="M32.4131 141L38 142.917L37.9088 147L32 146.355L32.4131 141Z" fill="white"/>
<path id="Path_42" opacity="0.2" d="M37 154.336L30.4657 158L23 147L30.2065 156.061L37 154.336Z" fill="black"/>
<path id="Oval_5" d="M14 131C19.5228 131 24 126.523 24 121C24 115.477 19.5228 111 14 111C8.47715 111 4 115.477 4 121C4 126.523 8.47715 131 14 131Z" fill="#2F2E41"/>
<path id="Path_43" d="M66.8353 145L60 134.696L62.8975 131L70 141.601L66.8353 145Z" fill="#F6933E"/>
<path id="Path_44" d="M66.5299 149L56 133.63L56.5194 133L67 148.406L66.5299 149Z" fill="#E6E6E6"/>
<path id="Path_45" d="M65.5299 150L55 134.63L55.5194 134L66 149.407L65.5299 150Z" fill="#E6E6E6"/>
<path id="Path_46" d="M64.5299 152L54 136.63L54.5194 136L65 151.407L64.5299 152Z" fill="#E6E6E6"/>
<path id="Path_47" d="M19 115H22.0938C25.3557 115 28 117.686 28 121H19V115Z" fill="#2F2E41"/>
<path id="Path_48" d="M59.7951 111.044L59.2949 111C59.2755 111.305 59.2616 111.611 59.2451 111.917L57 111.829L59.3551 117L62 112.025L59.7466 111.937C59.7627 111.639 59.7762 111.341 59.7951 111.044Z" fill="#3F3D56"/>
<path id="Path_49" d="M75 71.6548L75.3536 72C75.8839 71.1118 76.4378 70.2252 77 69.3646L76.6586 69C76.0923 69.8669 75.5343 70.7601 75 71.6548Z" fill="#3F3D56"/>
<path id="Path_50" d="M79 66.595L79.4584 67C80.2821 66.1274 81.1373 65.2608 82 64.424L81.5604 64C80.6912 64.8428 79.8298 65.716 79 66.595Z" fill="#3F3D56"/>
<path id="Path_51" d="M83 62.5274L83.3956 63C84.2443 62.1454 85.1206 61.3014 86 60.4911L85.6238 60C84.7378 60.8162 83.855 61.6667 83 62.5274Z" fill="#3F3D56"/>
<path id="Path_52" d="M71 76.7094L71.4098 77C71.9193 76.0955 72.4544 75.1908 73 74.3107L72.6021 74C72.0523 74.8867 71.5133 75.7982 71 76.7094Z" fill="#3F3D56"/>
<path id="Path_53" d="M89 57.6331L89.3391 58C90.2094 57.4449 91.1046 56.8996 92 56.3791L91.6807 56C90.7785 56.5245 89.8766 57.0739 89 57.6331Z" fill="#3F3D56"/>
<path id="Path_54" d="M68 82.76L68.478 83C68.9623 82.0801 69.4744 81.1584 70 80.2607L69.5333 80C69.0037 80.9045 68.4878 81.8331 68 82.76Z" fill="#3F3D56"/>
<path id="Path_55" d="M62 98.1242L61.5841 98C61.3719 98.9559 61.1753 99.9306 61 100.897L61.4203 101C61.5944 100.041 61.7894 99.0729 62 98.1242Z" fill="#3F3D56"/>
<path id="Path_56" d="M94 53.5711L94.2874 54C95.175 53.4638 96.0877 52.9392 97 52.4406L96.7328 52C95.8136 52.5024 94.8942 53.0309 94 53.5711Z" fill="#3F3D56"/>
<path id="Path_57" d="M61 105.081L60.4593 105C60.2833 105.971 60.1288 106.961 60 107.941L60.5442 108C60.672 107.027 60.8254 106.045 61 105.081Z" fill="#3F3D56"/>
<path id="Path_58" d="M65 88.8075L65.5642 89C66.0158 88.067 66.4989 87.1294 67 86.2134L66.4465 86C65.9416 86.923 65.4549 87.8676 65 88.8075Z" fill="#3F3D56"/>
<path id="Path_59" d="M63 94.8534L63.6786 95C64.0876 94.0529 64.5322 93.1 65 92.1679L64.3315 92C63.8602 92.939 63.4122 93.8991 63 94.8534Z" fill="#3F3D56"/>
<path id="Path_60" d="M131.017 43C132.002 42.9373 133.004 42.9122 133.996 42.9294L134 42.0053C133.002 41.9881 131.991 42.0132 131 42.0763L131.017 43Z" fill="#3F3D56"/>
<path id="Path_61" d="M100 50.4947L100.239 51C101.146 50.4849 102.075 49.9858 103 49.5165L102.782 49C101.85 49.4728 100.914 49.9757 100 50.4947Z" fill="#3F3D56"/>
<path id="Path_62" d="M144 43.5075C144.97 43.649 145.948 43.8147 146.909 44L147 43.4962C146.033 43.3096 145.047 43.1425 144.069 43L144 43.5075Z" fill="#3F3D56"/>
<path id="Path_63" d="M151 45.3972C151.955 45.5797 152.919 45.7825 153.865 46L154 45.6071C153.047 45.3881 152.076 45.1839 151.114 45L151 45.3972Z" fill="#3F3D56"/>
<path id="Path_64" d="M157 46.6477C157.942 47.0679 158.891 47.5228 159.821 48L160 47.3626C159.064 46.8817 158.108 46.4233 157.158 46L157 46.6477Z" fill="#3F3D56"/>
<path id="Path_65" d="M138 42.6938C138.983 42.7656 139.976 42.8687 140.952 43L141 42.3086C140.017 42.1761 139.016 42.0722 138.026 42L138 42.6938Z" fill="#3F3D56"/>
<path id="Path_66" d="M125 43.3761L125.061 44C126.032 43.8493 127.021 43.7236 128 43.6267L127.961 43C126.975 43.0977 125.978 43.2243 125 43.3761Z" fill="#3F3D56"/>
<path id="Path_67" d="M112 45.6318L112.148 46C113.088 45.7757 114.048 45.5647 115 45.3729L114.873 45C113.914 45.1932 112.947 45.4058 112 45.6318Z" fill="#3F3D56"/>
<path id="Path_68" d="M106 48.396L106.193 49C107.118 48.513 108.062 48.0469 109 47.6142L108.828 47C107.883 47.4357 106.931 47.9055 106 48.396Z" fill="#3F3D56"/>
<path id="Path_69" d="M118 44.5342L118.104 45C119.06 44.8039 120.034 44.6254 121 44.4697L120.917 44C119.944 44.157 118.963 44.3367 118 44.5342Z" fill="#3F3D56"/>
<path id="Path_70" d="M168 51.6033L165.191 47L164.203 49.2545C163.964 49.1361 163.726 49.0152 163.487 48.9005L163.287 49.4122C163.521 49.5241 163.751 49.6415 163.983 49.7562L163 52L168 51.6033Z" fill="#3F3D56"/>
</g>
</svg>
