<svg width="323" height="253" viewBox="0 0 323 253" fill="none" xmlns="http://www.w3.org/2000/svg">
<rect x="253" y="163" width="1" height="52" fill="#ECEEF5"/>
<rect x="253" y="105" width="1" height="52" fill="#ECEEF5"/>
<rect x="253" y="33" width="1" height="52" fill="#ECEEF5"/>
<path d="M252 172C256.971 172 261 167.971 261 163C261 158.029 256.971 154 252 154C247.029 154 243 158.029 243 163C243 167.971 247.029 172 252 172Z" fill="#ECEEF5"/>
<path d="M253.5 117C263.165 117 271 109.165 271 99.5C271 89.835 263.165 82 253.5 82C243.835 82 236 89.835 236 99.5C236 109.165 243.835 117 253.5 117Z" fill="#ECEEF5"/>
<path d="M253.5 56C266.479 56 277 45.4787 277 32.5C277 19.5213 266.479 9 253.5 9C240.521 9 230 19.5213 230 32.5C230 45.4787 240.521 56 253.5 56Z" fill="#ECEEF5"/>
<path d="M243 26C245.209 26 247 24.2091 247 22C247 19.7909 245.209 18 243 18C240.791 18 239 19.7909 239 22C239 24.2091 240.791 26 243 26Z" fill="#D0CDE1"/>
<path d="M257.5 33C258.881 33 260 31.8807 260 30.5C260 29.1193 258.881 28 257.5 28C256.119 28 255 29.1193 255 30.5C255 31.8807 256.119 33 257.5 33Z" fill="#D0CDE1"/>
<path d="M252.5 45C253.881 45 255 43.8807 255 42.5C255 41.1193 253.881 40 252.5 40C251.119 40 250 41.1193 250 42.5C250 43.8807 251.119 45 252.5 45Z" fill="#D0CDE1"/>
<path fill-rule="evenodd" clip-rule="evenodd" d="M82.9784 240.607C102.899 248.791 124.223 253.001 145.753 253C146.476 253 147.201 252.995 147.925 252.986C214.826 252.089 274.708 211.191 300 149.122L299.309 148.839C264.802 233.635 167.883 274.491 83.2602 239.914C15.6001 212.268 -16.9999 134.619 10.5896 66.8201C32.6458 12.6197 94.5954 -13.495 148.686 8.6062C169.481 17.1029 186.055 33.5293 194.764 54.2717C203.472 75.0141 203.601 98.3734 195.121 119.211C188.345 135.862 175.245 149.135 158.703 156.108C142.161 163.081 123.532 163.184 106.915 156.394C79.2696 145.098 65.9972 113.484 77.2699 85.7824C86.2937 63.6801 111.469 53.0677 133.547 62.0591C151.154 69.2772 159.609 89.4149 152.446 107.075C146.712 121.165 130.665 127.929 116.604 122.184C111.22 119.984 106.929 115.731 104.675 110.361C102.42 104.991 102.387 98.9439 104.582 93.5493C108.232 84.6093 118.415 80.3167 127.346 83.9534C134.445 86.8639 137.854 94.9834 134.966 102.104C132.658 107.757 126.219 110.471 120.572 108.172C116.093 106.341 113.943 101.219 115.769 96.7306C117.218 93.1814 121.261 91.4773 124.806 92.9213C127.601 94.0674 128.943 97.2643 127.806 100.068C126.907 102.27 124.398 103.328 122.198 102.432C120.478 101.727 119.652 99.7593 120.351 98.0338C120.899 96.6933 122.426 96.0497 123.765 96.5945C124.798 97.0177 125.294 98.1985 124.874 99.2341C124.551 100.023 123.652 100.402 122.864 100.081C122.272 99.8384 121.987 99.1613 122.228 98.5675C122.285 98.4259 122.38 98.3024 122.501 98.21C122.417 98.2936 122.35 98.3935 122.306 98.5036C122.205 98.7498 122.207 99.0259 122.31 99.2711C122.413 99.5163 122.608 99.7105 122.854 99.8109C123.139 99.9272 123.457 99.9255 123.74 99.8062C124.024 99.6869 124.248 99.4598 124.364 99.1749C124.645 98.4811 124.313 97.6899 123.621 97.4065C122.803 97.0724 121.87 97.4658 121.537 98.2851C121.141 99.2615 121.608 100.375 122.582 100.774C123.752 101.251 125.087 100.688 125.565 99.5165C126.14 98.0984 125.461 96.4814 124.047 95.9019C122.326 95.2007 120.363 96.0281 119.66 97.7514C118.805 99.8595 119.814 102.263 121.916 103.125C124.498 104.176 127.442 102.935 128.498 100.35C129.79 97.1641 128.265 93.5309 125.088 92.2286C121.161 90.6289 116.683 92.5166 115.078 96.4482C113.102 101.319 115.434 106.874 120.291 108.865C126.319 111.32 133.193 108.422 135.657 102.386C138.701 94.8833 135.109 86.3273 127.628 83.2607C118.315 79.4683 107.697 83.9445 103.891 93.2669C101.621 98.8453 101.655 105.099 103.986 110.652C106.318 116.205 110.755 120.602 116.322 122.877C123.258 125.711 131.033 125.668 137.937 122.757C144.841 119.847 150.309 114.307 153.137 107.357C160.456 89.3147 151.818 68.7407 133.829 61.3665C111.369 52.2192 85.7582 63.0153 76.5786 85.5C71.0903 98.9866 71.1735 114.105 76.8098 127.531C82.4461 140.956 93.1738 151.587 106.633 157.087C123.434 163.951 142.268 163.847 158.993 156.797C175.717 149.747 188.961 136.328 195.812 119.493C213.625 75.719 192.652 25.763 148.967 7.91335C122.767 -2.79196 93.3966 -2.62966 67.3161 8.36455C41.2356 19.3588 20.5818 40.2843 9.89838 66.5377C-3.47737 99.3288 -3.29028 136.104 10.4184 168.757C24.1271 201.409 50.2319 227.259 82.9784 240.607ZM123.066 98.716C123.082 98.7094 123.099 98.7059 123.116 98.7058C123.133 98.7058 123.149 98.7091 123.165 98.7155L123.403 98.1299C123.673 98.2789 123.789 98.6067 123.672 98.8925C123.586 99.1031 123.347 99.2041 123.136 99.1181C123.074 99.0926 123.024 99.0433 122.998 98.981C122.972 98.9188 122.972 98.8487 122.997 98.7862C123.01 98.7545 123.035 98.7293 123.066 98.716Z" fill="#9B9BA8"/>
<rect x="294" y="111" width="29" height="34" fill="#F6933E"/>
<rect x="76" y="45" width="29" height="34" fill="#F6933E"/>
<path fill-rule="evenodd" clip-rule="evenodd" d="M289 148.982L318.98 149L319 114.018L289.02 114L289 148.982ZM318.25 148.247L289.732 148.23L289.751 114.753L318.268 114.77L318.25 148.247Z" fill="#3F3D56"/>
<rect x="82" y="50" width="19" height="2" fill="#F2F2F2"/>
<rect x="82" y="57" width="19" height="2" fill="#F2F2F2"/>
<rect x="82" y="63" width="19" height="2" fill="#F2F2F2"/>
<path fill-rule="evenodd" clip-rule="evenodd" d="M82 73.9822L111.981 74L112 39.0178L82.0196 39L82 73.9822ZM111.25 73.2473L82.7316 73.2302L82.7505 39.7527L111.268 39.7698L111.25 73.2473Z" fill="#3F3D56"/>
<rect x="10" y="170" width="29" height="34" fill="#F2F2F2"/>
<rect x="14" y="179" width="19" height="16" fill="#3F3D56"/>
<path fill-rule="evenodd" clip-rule="evenodd" d="M14 201.982L43.9805 202L44 167.018L14.0196 167L14 201.982ZM43.2497 201.247L14.7316 201.23L14.7505 167.753L43.2684 167.77L43.2497 201.247Z" fill="#3F3D56"/>
<path d="M24 191C26.7614 191 29 188.761 29 186C29 183.239 26.7614 181 24 181C21.2386 181 19 183.239 19 186C19 188.761 21.2386 191 24 191Z" fill="#F6933E"/>
</svg>
