<svg width="275" height="251" viewBox="0 0 275 251" fill="none" xmlns="http://www.w3.org/2000/svg">
<rect x="215" y="138" width="1" height="45" fill="#F2F2F2"/>
<rect x="215" y="89" width="1" height="45" fill="#F2F2F2"/>
<rect x="215" y="27" width="1" height="45" fill="#F2F2F2"/>
<path d="M215 146C219.418 146 223 142.418 223 138C223 133.582 219.418 130 215 130C210.582 130 207 133.582 207 138C207 142.418 210.582 146 215 146Z" fill="#F2F2F2"/>
<path d="M215 100C223.284 100 230 93.2843 230 85C230 76.7157 223.284 70 215 70C206.716 70 200 76.7157 200 85C200 93.2843 206.716 100 215 100Z" fill="#F2F2F2"/>
<path d="M215 48C226.046 48 235 39.0457 235 28C235 16.9543 226.046 8 215 8C203.954 8 195 16.9543 195 28C195 39.0457 203.954 48 215 48Z" fill="#F2F2F2"/>
<path d="M207 22C208.657 22 210 20.6569 210 19C210 17.3431 208.657 16 207 16C205.343 16 204 17.3431 204 19C204 20.6569 205.343 22 207 22Z" fill="#D0CDE1"/>
<path d="M219 28C220.105 28 221 27.1046 221 26C221 24.8954 220.105 24 219 24C217.895 24 217 24.8954 217 26C217 27.1046 217.895 28 219 28Z" fill="#D0CDE1"/>
<path d="M215 38C216.105 38 217 37.1046 217 36C217 34.8954 216.105 34 215 34C213.895 34 213 34.8954 213 36C213 37.1046 213.895 38 215 38Z" fill="#D0CDE1"/>
<path fill-rule="evenodd" clip-rule="evenodd" d="M70.8082 204.468C87.8074 211.424 106.004 215.001 124.376 215C124.993 215 125.612 214.996 126.229 214.988C183.318 214.226 234.417 179.471 256 126.724L255.41 126.484C225.964 198.544 143.26 233.263 71.0487 203.88C13.3121 180.386 -14.5066 114.399 9.03649 56.7839C27.8578 10.7243 80.7214 -11.4681 126.878 7.31357C144.623 14.5341 158.767 28.4933 166.198 46.1202C173.629 63.7472 173.739 83.5979 166.503 101.306C160.721 115.456 149.542 126.735 135.427 132.661C121.311 138.587 105.414 138.674 91.2339 132.904C67.6434 123.304 56.3176 96.4391 65.937 72.8981C73.6373 54.1155 95.12 45.097 113.96 52.738C128.985 58.8719 136.2 75.985 130.087 90.9926C125.194 102.966 111.501 108.715 99.5019 103.832C94.9079 101.963 91.2461 98.3489 89.3223 93.7854C87.3984 89.222 87.37 84.0828 89.2433 79.4984C92.3583 71.9012 101.048 68.2533 108.668 71.3438C114.727 73.8171 117.635 80.7171 115.171 86.7683C113.201 91.572 107.707 93.8785 102.888 91.9245C99.0661 90.3691 97.2311 86.0162 98.7896 82.2019C100.026 79.1858 103.476 77.7377 106.501 78.9648C108.886 79.9387 110.032 82.6554 109.061 85.038C108.294 86.9094 106.153 87.808 104.276 87.0471C102.808 86.4476 102.103 84.7757 102.7 83.3093C103.167 82.1702 104.47 81.6233 105.613 82.0863C106.494 82.4459 106.917 83.4494 106.559 84.3293C106.284 85.0001 105.516 85.3222 104.844 85.0493C104.338 84.8429 104.096 84.2675 104.301 83.7629C104.35 83.6426 104.431 83.5376 104.534 83.4591C104.462 83.5302 104.406 83.615 104.368 83.7086C104.282 83.9178 104.283 84.1525 104.371 84.3608C104.459 84.5692 104.626 84.7342 104.836 84.8195C105.078 84.9184 105.35 84.9169 105.592 84.8156C105.833 84.7142 106.025 84.5212 106.124 84.279C106.364 83.6895 106.08 83.0171 105.49 82.7763C104.792 82.4924 103.996 82.8266 103.711 83.5229C103.374 84.3527 103.772 85.2988 104.603 85.6379C105.602 86.0434 106.741 85.5652 107.149 84.5693C107.64 83.3643 107.06 81.9902 105.854 81.4976C104.385 80.9017 102.71 81.6049 102.11 83.0693C101.38 84.8608 102.241 86.9036 104.035 87.6357C106.238 88.5292 108.751 87.4745 109.651 85.2779C110.754 82.5703 109.452 79.4828 106.742 78.3761C103.391 77.0167 99.5692 78.6208 98.1998 81.9619C96.5137 86.1013 98.5036 90.8215 102.648 92.5133C107.792 94.5997 113.658 92.1371 115.761 87.0083C118.358 80.632 115.293 73.3612 108.909 70.7551C100.962 67.5323 91.9014 71.3362 88.6534 79.2585C86.7163 83.999 86.7457 89.3132 88.7351 94.032C90.7245 98.7509 94.5109 102.488 99.2614 104.421C105.18 106.829 111.815 106.793 117.706 104.319C123.598 101.846 128.264 97.1386 130.677 91.2326C136.922 75.8999 129.551 58.416 114.2 52.1494C95.0348 44.376 73.1803 53.5506 65.3471 72.6581C60.6638 84.119 60.7347 96.967 65.5443 108.376C70.354 119.784 79.5083 128.819 90.9935 133.492C105.33 139.326 121.402 139.238 135.674 133.247C149.945 127.255 161.247 115.852 167.093 101.546C182.294 64.3462 164.397 21.8935 127.119 6.72478C104.762 -2.37262 79.6984 -2.23469 57.4431 7.10821C35.1877 16.4511 17.5631 34.2337 8.44662 56.5439C-2.96735 84.4098 -2.8077 115.661 8.89037 143.41C20.5884 171.158 42.8645 193.125 70.8082 204.468ZM105.037 83.8828C105.044 83.8813 105.052 83.8805 105.059 83.8804C105.074 83.8805 105.088 83.8832 105.101 83.8887L105.304 83.391C105.534 83.5176 105.633 83.7962 105.534 84.0391C105.46 84.218 105.256 84.3038 105.076 84.2308C105.023 84.2091 104.981 84.1672 104.958 84.1143C104.936 84.0614 104.936 84.0019 104.957 83.9487C104.969 83.9219 104.99 83.9004 105.017 83.8891C105.023 83.8864 105.03 83.8843 105.037 83.8828Z" fill="#3F3D56"/>
<path d="M156 90C164.837 90 172 82.8366 172 74C172 65.1634 164.837 58 156 58C147.163 58 140 65.1634 140 74C140 82.8366 147.163 90 156 90Z" fill="#2F2E41"/>
<path d="M173.077 121L175 127.129L150 131L150.321 124.548L173.077 121Z" fill="#A0616A"/>
<path d="M144.662 168L143.727 187.312C143.727 187.312 138.428 197.126 139.051 211.055C139.674 224.985 139.363 225.302 139.363 225.302L139.051 230.367L144.038 231V224.352C144.038 224.352 151.207 205.99 151.831 196.809L159 169.266L144.662 168Z" fill="#A0616A"/>
<path d="M180.338 168L181.273 187.312C181.273 187.312 186.572 197.126 185.949 211.055C185.326 224.985 185.637 225.302 185.637 225.302L185.949 230.367L180.962 231V224.352C180.962 224.352 173.793 205.99 173.169 196.809L166 169.266L180.338 168Z" fill="#A0616A"/>
<path d="M174.8 125C174.8 125 151.929 128.504 148.435 127.548L137 167.366C137 167.366 147.482 171.507 160.188 170.233C162.8 169.725 165.506 170.178 167.812 171.507C171.624 173.736 183.059 167.684 183.059 167.684L191 166.092L174.8 125Z" fill="#2F2E41"/>
<rect x="158" y="130" width="25" height="29" fill="#F6933E"/>
<rect x="154" y="133" width="25" height="29" fill="#F2F2F2"/>
<path d="M139.312 106.632L139 111.059L144.622 130.663C144.622 130.663 146.808 144.575 151.181 152.796C151.181 152.796 153.68 165.444 158.365 163.863C163.05 162.282 156.178 149.951 156.178 149.951L151.181 130.979L145.247 106L139.312 106.632Z" fill="#A0616A"/>
<path d="M157.5 89C162.747 89 167 84.7467 167 79.5C167 74.2533 162.747 70 157.5 70C152.253 70 148 74.2533 148 79.5C148 84.7467 152.253 89 157.5 89Z" fill="#A0616A"/>
<path d="M151.359 85C151.359 85 154.251 93.4857 148.466 95.0571C142.681 96.6286 136.895 100.086 138.181 105.743L138.824 107L179 97.5714C177.19 94.6488 173.787 93.0465 170.322 93.4857C170.322 93.4857 161.385 93.2543 161.996 87.5557L161.001 85.3143L151.359 85Z" fill="#A0616A"/>
<path d="M177.798 97C177.798 97 179.409 97 183.596 102.399C187.784 107.799 190.683 110.657 190.683 110.657C190.683 110.657 194.549 112.563 192.294 117.009C190.039 121.456 181.986 125.902 181.986 125.902C181.986 125.902 173.933 135.43 172.966 130.666C172 125.902 179.731 123.361 179.731 123.361C179.731 123.361 185.529 117.962 185.207 114.786L172 103.987L177.798 97Z" fill="#A0616A"/>
<path d="M138.051 105.28C138.051 105.28 177.076 96 178.02 96L180 99.1192C180 99.1192 179.594 101.44 174.873 102.08C174.873 102.08 175.817 106.88 173.929 111.68V123.52C173.929 123.52 151.898 126.08 150.01 128L146.62 110.908C146.62 110.908 142.142 108.16 138.995 110.4C138.995 110.4 137.736 106.24 138.051 105.28Z" fill="#D0CDE1"/>
<path d="M144.68 230.157C144.68 230.157 141.236 226.001 138.816 229.227L135.733 235.404C135.733 235.404 127.117 249.832 136.064 250.816C145.012 251.8 145.674 248.521 145.674 248.521C145.674 248.521 145.012 244.586 145.674 243.93C146.337 243.274 147 242.946 147 241.634C147 240.323 144.68 230.157 144.68 230.157Z" fill="#2F2E41"/>
<path d="M179.32 230.157C179.32 230.157 182.764 226.001 185.184 229.227L188.267 235.404C188.267 235.404 196.883 249.832 187.936 250.816C178.988 251.8 178.326 248.521 178.326 248.521C178.326 248.521 178.988 244.586 178.326 243.93C177.663 243.274 177 242.946 177 241.634C177 240.323 179.32 230.157 179.32 230.157Z" fill="#2F2E41"/>
<path d="M141 68C143.761 68 146 65.7614 146 63C146 60.2386 143.761 58 141 58C138.239 58 136 60.2386 136 63C136 65.7614 138.239 68 141 68Z" fill="#2F2E41"/>
<path d="M170 67C172.761 67 175 64.7614 175 62C175 59.2386 172.761 57 170 57C167.239 57 165 59.2386 165 62C165 64.7614 167.239 67 170 67Z" fill="#2F2E41"/>
<path d="M165.973 59C165.973 56.4463 167.71 54.3032 170 54.0297C168.281 53.8216 166.607 54.7208 165.689 56.3447C164.77 57.9686 164.77 60.0314 165.689 61.6553C166.607 63.2792 168.281 64.1784 170 63.9703C167.71 63.6968 165.973 61.5537 165.973 59Z" fill="#2F2E41"/>
<path d="M135.984 65.9792C134.372 64.3449 134.259 61.7669 135.723 60C134.363 61.0613 133.735 62.8006 134.104 64.4778C134.474 66.1551 135.776 67.475 137.458 67.876C139.139 68.2769 140.904 67.6884 142 66.3608C140.191 67.7776 137.597 67.6131 135.984 65.9792Z" fill="#2F2E41"/>
<path d="M156 67C150.477 67 146 69.4624 146 72.5C146 73.8591 146.9 75.1013 148.385 76.0609L150.311 74.7458L149.787 76.8061C150.004 76.901 150.226 76.9929 150.457 77.0778L153.333 73.9143V77.8007C154.215 77.9339 155.107 78.0005 156 78C161.523 78 166 75.5376 166 72.5C166 69.4624 161.523 67 156 67Z" fill="#2F2E41"/>
<path d="M166.044 62C166.044 62 165.291 65.5714 170 67L166.044 62Z" fill="#F6933E"/>
<path d="M145.778 62C145.778 62 147.167 66.1458 143 68L145.778 62Z" fill="#F6933E"/>
<path d="M148.246 83.509C148.669 83.3905 148.781 82.4704 148.497 81.454C148.213 80.4375 147.639 79.7097 147.216 79.8282C146.793 79.9468 146.68 80.8669 146.965 81.8833C147.249 82.8997 147.822 83.6276 148.246 83.509Z" fill="#A0616A"/>
<path d="M167.622 80.125C167.687 79.0715 167.384 78.1955 166.945 78.1685C166.507 78.1415 166.099 78.9736 166.034 80.0271C165.969 81.0806 166.272 81.9566 166.711 81.9836C167.149 82.0106 167.557 81.1785 167.622 80.125Z" fill="#A0616A"/>
<rect x="250" y="94" width="25" height="29" fill="#F6933E"/>
<rect x="65" y="37" width="25" height="29" fill="#F6933E"/>
<path fill-rule="evenodd" clip-rule="evenodd" d="M247 126.985L272.983 127L273 98.0148L247.017 98L247 126.985ZM272.35 126.376L247.634 126.362L247.65 98.6236L272.366 98.6378L272.35 126.376Z" fill="#3F3D56"/>
<rect x="70" y="43" width="16" height="2" fill="#F2F2F2"/>
<rect x="70" y="49" width="16" height="2" fill="#F2F2F2"/>
<rect x="70" y="53" width="16" height="2" fill="#F2F2F2"/>
<path fill-rule="evenodd" clip-rule="evenodd" d="M69 61.9852L94.9831 62L95 33.0148L69.017 33L69 61.9852ZM94.3497 61.3764L69.6341 61.3622L69.6504 33.6236L94.366 33.6378L94.3497 61.3764Z" fill="#3F3D56"/>
<rect x="7" y="146" width="25" height="29" fill="#F2F2F2"/>
<rect x="12" y="153" width="16" height="14" fill="#3F3D56"/>
<path fill-rule="evenodd" clip-rule="evenodd" d="M11 169.985L36.9831 170L37 141.015L11.017 141L11 169.985ZM36.3497 169.376L11.6341 169.362L11.6504 141.624L36.366 141.638L36.3497 169.376Z" fill="#3F3D56"/>
<path d="M19.5 163C21.433 163 23 161.433 23 159.5C23 157.567 21.433 156 19.5 156C17.567 156 16 157.567 16 159.5C16 161.433 17.567 163 19.5 163Z" fill="#F6933E"/>
</svg>
