<svg width="322" height="259" viewBox="0 0 322 259" fill="none" xmlns="http://www.w3.org/2000/svg">
<path fill-rule="evenodd" clip-rule="evenodd" d="M143.483 22.1047L143.52 23.005C145.164 22.9366 146.839 22.9016 148.5 22.9011L148.905 22.9018L148.908 22.0007L148.5 22C146.827 22.0004 145.139 22.0356 143.483 22.1047ZM159.657 23.4237C157.882 23.2565 156.076 23.1275 154.287 23.0411L154.331 22.1408C156.133 22.2281 157.953 22.358 159.742 22.5265L159.657 23.4237ZM132.677 23.0474L132.796 23.9407C134.567 23.7044 136.367 23.5059 138.147 23.3506L138.069 22.453C136.275 22.6092 134.461 22.8094 132.677 23.0474ZM170.317 24.9212C168.563 24.5919 166.775 24.2988 165.005 24.0502L165.13 23.1579C166.914 23.4085 168.715 23.7037 170.484 24.0355L170.317 24.9212ZM122.001 24.974L122.202 25.8525C123.944 25.4545 125.719 25.092 127.477 24.7747L127.317 23.8881C125.546 24.2075 123.757 24.573 122.001 24.974ZM180.795 27.3914C179.076 26.9015 177.323 26.4452 175.585 26.0353L175.792 25.1584C177.544 25.5713 179.31 26.0311 181.042 26.5246L180.795 27.3914ZM111.548 27.875L111.829 28.7313C113.528 28.174 115.262 27.6495 116.982 27.1723L116.741 26.3042C115.008 26.7849 113.261 27.3136 111.548 27.875ZM191.014 30.8204C189.345 30.1734 187.638 29.5561 185.938 28.9858L186.225 28.1313C187.937 28.7062 189.658 29.3281 191.339 29.9805L191.014 30.8204ZM101.419 31.7213L101.778 32.5481C103.414 31.8388 105.088 31.1586 106.753 30.5263L106.433 29.6837C104.755 30.321 103.068 31.0065 101.419 31.7213ZM200.88 35.1814C199.276 34.3825 197.634 33.6108 195.998 32.8876L196.362 32.0635C198.011 32.7921 199.666 33.5698 201.282 34.3748L200.88 35.1814ZM91.6929 36.4785L92.1254 37.2692C93.6917 36.4121 95.2975 35.5807 96.8982 34.7977L96.5022 33.9881C94.8891 34.7772 93.271 35.615 91.6929 36.4785ZM82.9393 42.8569L82.4364 42.1093C83.9281 41.1057 85.4637 40.1229 87.0009 39.1877L87.469 39.9577C85.9438 40.8857 84.4198 41.8612 82.9393 42.8569ZM73.7275 48.5641L74.2965 49.2628C75.6796 48.1364 77.1092 47.0256 78.5457 45.9607L78.0089 45.2369C76.5616 46.3097 75.1213 47.4291 73.7275 48.5641ZM227.49 53.3773C226.164 52.1741 224.794 50.9874 223.419 49.8502L223.994 49.1559C225.379 50.3017 226.759 51.4974 228.096 52.7098L227.49 53.3773ZM65.638 55.7879L66.268 56.4321C67.5469 55.1809 68.8703 53.9441 70.2011 52.756L69.6009 52.0837C68.26 53.2809 66.9265 54.5273 65.638 55.7879ZM235.126 60.9666C233.916 59.649 232.66 58.3431 231.394 57.0855L232.03 56.4462C233.305 57.7136 234.57 59.0293 235.79 60.3568L235.126 60.9666ZM58.2357 63.7202L58.9216 64.3046C60.0789 62.9456 61.2847 61.5928 62.5057 60.284L61.847 59.6693C60.6166 60.988 59.4015 62.3509 58.2357 63.7202ZM242.038 69.2153C240.952 67.793 239.821 66.379 238.676 65.0127L239.367 64.4339C240.521 65.8107 241.66 67.2352 242.755 68.6684L242.038 69.2153ZM51.5827 72.2971L52.3193 72.8163C53.35 71.3542 54.4283 69.8969 55.5237 68.4844L54.8117 67.9322C53.7077 69.3552 52.6216 70.8237 51.5827 72.2971ZM248.168 78.0535C247.216 76.5377 246.219 75.0276 245.205 73.565L245.945 73.0515C246.967 74.5253 247.972 76.0469 248.931 77.5744L248.168 78.0535ZM45.7381 81.4496L46.5191 81.8992C47.411 80.3502 48.3519 78.7996 49.3153 77.2908L48.5559 76.8059C47.585 78.3262 46.637 79.8886 45.7381 81.4496ZM253.462 87.4095C252.656 85.8186 251.801 84.2245 250.922 82.6719L251.707 82.2279C252.592 83.7926 253.453 85.3989 254.266 87.002L253.462 87.4095ZM40.7543 91.1045L41.5731 91.4807C42.3201 89.854 43.1149 88.2228 43.936 86.6324L43.1352 86.2192C42.308 87.8218 41.5069 89.4654 40.7543 91.1045ZM257.872 97.2041C257.215 95.5457 256.511 93.8814 255.78 92.2571L256.602 91.887C257.339 93.5239 258.048 95.201 258.71 96.8719L257.872 97.2041ZM36.6785 101.183L37.5286 101.482C38.1228 99.7918 38.7646 98.0931 39.4358 96.4339L38.6002 96.0959C37.9239 97.7682 37.2773 99.4798 36.6785 101.183ZM261.372 107.385C260.869 105.669 260.32 103.943 259.74 102.254L260.592 101.961C261.177 103.663 261.73 105.402 262.237 107.131L261.372 107.385ZM33.5524 111.587L34.4265 111.806C34.8608 110.074 35.3417 108.328 35.8559 106.615L34.993 106.356C34.4747 108.082 33.99 109.842 33.5524 111.587ZM263.919 117.845C263.575 116.087 263.187 114.317 262.766 112.585L263.641 112.372C264.066 114.117 264.457 115.901 264.803 117.672L263.919 117.845ZM31.4014 122.22L32.292 122.357C32.5659 120.588 32.8843 118.805 33.2381 117.057L32.3549 116.879C31.9983 118.64 31.6775 120.437 31.4014 122.22ZM265.517 127.562C265.407 126.481 265.273 125.737 265.126 124.922L265.125 124.921L265.125 124.92L265.125 124.92L265.125 124.919L265.125 124.919C265.03 124.395 264.93 123.842 264.828 123.15L265.72 123.019C265.748 123.214 265.777 123.405 265.805 123.591L265.868 124.012L265.868 124.013C266.068 125.344 266.244 126.508 266.39 127.952L265.517 127.562ZM30.2334 133.003L31.1328 133.06C31.2446 131.273 31.3983 129.468 31.5904 127.695L30.6946 127.598C30.5012 129.384 30.3458 131.203 30.2334 133.003ZM30.0466 143.85C30.0158 142.745 30.0002 141.618 30 140.5C30 139.807 30.0059 139.114 30.0178 138.424L30.919 138.439C30.9071 139.125 30.9011 139.812 30.9011 140.5C30.9014 141.609 30.917 142.728 30.9473 143.825L30.0466 143.85ZM265.978 145.883L266.878 145.923C266.959 144.124 267 142.3 267 140.5H266.099C266.099 142.286 266.058 144.097 265.978 145.883ZM30.8385 154.668C30.6259 152.885 30.4515 151.068 30.3197 149.269L31.2186 149.203C31.3491 150.989 31.5225 152.791 31.7334 154.562L30.8385 154.668ZM265.005 156.603L265.898 156.726C266.142 154.947 266.348 153.134 266.511 151.335L265.614 151.254C265.452 153.039 265.247 154.839 265.005 156.603ZM32.6143 165.369C32.2386 163.609 31.8984 161.816 31.6036 160.039L32.4925 159.891C32.7853 161.655 33.1228 163.435 33.4957 165.181L32.6143 165.369ZM263.057 167.19L263.934 167.394C264.341 165.643 264.713 163.857 265.039 162.082L264.153 161.919C263.829 163.68 263.46 165.453 263.057 167.19ZM35.3666 175.863C34.8304 174.145 34.3266 172.391 33.8692 170.648L34.7409 170.419C35.1948 172.149 35.6948 173.89 36.2268 175.594L35.3666 175.863ZM260.142 177.554L260.997 177.837C261.564 176.13 262.099 174.385 262.587 172.65L261.719 172.406C261.235 174.128 260.704 175.86 260.142 177.554ZM39.0686 186.045C38.3778 184.387 37.7162 182.691 37.1024 181.003L37.9494 180.695C38.5584 182.37 39.2149 184.053 39.9002 185.698L39.0686 186.045ZM256.275 187.628L257.101 187.989C257.824 186.337 258.519 184.644 259.166 182.959L258.325 182.636C257.683 184.308 256.993 185.988 256.275 187.628ZM252.288 197.731L251.5 197.296C252.365 195.73 253.205 194.122 253.999 192.517L254.806 192.916C254.007 194.534 253.16 196.154 252.288 197.731ZM46.3299 200.566C47.2436 202.116 48.2045 203.665 49.1864 205.17L49.941 204.678C48.9666 203.184 48.0129 201.647 47.106 200.108L46.3299 200.566ZM246.604 206.986L245.859 206.48C246.864 205 247.848 203.477 248.784 201.953L249.552 202.424C248.608 203.96 247.617 205.495 246.604 206.986ZM52.2511 209.641C53.3025 211.102 54.4014 212.558 55.5175 213.968L56.2241 213.41C55.1164 212.01 54.0258 210.565 52.9824 209.115L52.2511 209.641ZM240.103 215.679L239.407 215.107C240.543 213.725 241.661 212.299 242.731 210.868L243.453 211.407C242.374 212.85 241.248 214.287 240.103 215.679ZM58.9784 218.144C60.1563 219.501 61.3837 220.852 62.6265 222.158L63.2795 221.537C62.0459 220.24 60.828 218.9 59.6591 217.553L58.9784 218.144ZM232.84 223.741L232.198 223.108C233.455 221.834 234.699 220.516 235.893 219.19L236.563 219.793C235.359 221.129 234.107 222.457 232.84 223.741ZM66.4542 226.003C67.7535 227.251 69.0993 228.484 70.4539 229.671L71.0474 228.993C69.7032 227.816 68.3678 226.591 67.0781 225.353L66.4542 226.003ZM224.877 231.106L224.296 230.417C225.66 229.266 227.017 228.067 228.33 226.853L228.942 227.515C227.619 228.738 226.251 229.947 224.877 231.106ZM74.6172 233.153C76.0286 234.28 77.4815 235.387 78.9359 236.443L79.4652 235.714C78.022 234.666 76.5801 233.567 75.1795 232.449L74.6172 233.153ZM216.281 237.712L215.766 236.974C217.229 235.952 218.689 234.881 220.105 233.793L220.654 234.507C219.227 235.604 217.756 236.683 216.281 237.712ZM206.678 242.723L207.124 243.505C208.69 242.613 210.253 241.673 211.769 240.714L211.287 239.953C209.783 240.905 208.232 241.837 206.678 242.723ZM197.483 248.434L197.11 247.614C198.73 246.878 200.358 246.092 201.95 245.278L202.36 246.081C200.756 246.901 199.115 247.692 197.483 248.434ZM102.547 249.76C104.212 250.461 105.914 251.132 107.605 251.754L107.917 250.908C106.238 250.291 104.549 249.625 102.896 248.929L102.547 249.76ZM187.422 252.46L187.126 251.609C188.813 251.022 190.51 250.388 192.17 249.724L192.505 250.561C190.832 251.23 189.122 251.869 187.422 252.46ZM112.753 253.513C114.468 254.056 116.221 254.565 117.963 255.028L118.194 254.157C116.466 253.698 114.727 253.192 113.025 252.654L112.753 253.513ZM177.022 255.545L176.805 254.67C178.544 254.24 180.292 253.765 182.001 253.258L182.258 254.123C180.535 254.633 178.774 255.112 177.022 255.545ZM123.237 256.301C124.996 256.683 126.788 257.029 128.564 257.33L128.714 256.441C126.952 256.143 125.174 255.8 123.428 255.421L123.237 256.301ZM166.382 257.66L166.247 256.769C168.018 256.5 169.803 256.188 171.55 255.841L171.726 256.725C169.965 257.075 168.167 257.389 166.382 257.66ZM133.932 258.113C135.717 258.333 137.533 258.513 139.331 258.651L139.399 257.752C137.615 257.616 135.813 257.436 134.042 257.219L133.932 258.113ZM155.594 258.791L155.541 257.892C157.324 257.786 159.129 257.639 160.907 257.452L161.002 258.348C159.21 258.536 157.391 258.685 155.594 258.791ZM148.5 259C147.25 259 145.987 258.98 144.748 258.941L144.776 258.041C146.556 258.097 148.372 258.112 150.16 258.087L150.172 258.989C149.616 258.996 149.058 259 148.5 259Z" fill="#3F3D56"/>
<path d="M146.5 175C166.658 175 183 158.658 183 138.5C183 118.342 166.658 102 146.5 102C126.342 102 110 118.342 110 138.5C110 158.658 126.342 175 146.5 175Z" fill="#F6933E"/>
<path d="M143.5 143.922L155.859 131.508L157.5 133.148L143.5 147.148L136.992 140.641L138.578 139L143.5 143.922Z" fill="#FAFBFF"/>
<rect x="32" y="200" width="50" height="58" fill="#ECEEF5"/>
<path fill-rule="evenodd" clip-rule="evenodd" d="M32 259H101V190H32V259ZM100.042 258.042H32.9583V190.958H100.042V258.042Z" fill="#3F3D56"/>
<rect x="46" y="210" width="42" height="1" fill="#3F3D56"/>
<rect x="46" y="220" width="42" height="1" fill="#3F3D56"/>
<rect x="46" y="231" width="42" height="1" fill="#3F3D56"/>
<rect x="101" y="10" width="100" height="50" fill="#ECEEF5"/>
<path fill-rule="evenodd" clip-rule="evenodd" d="M101 60H222V0H101V60ZM221.097 59.1045H101.903V0.895522H221.097V59.1045Z" fill="#3F3D56"/>
<rect x="119" y="25" width="65" height="1" fill="#3F3D56"/>
<rect x="119" y="35" width="65" height="1" fill="#3F3D56"/>
<rect x="119" y="44" width="65" height="1" fill="#3F3D56"/>
<rect x="239" y="135" width="43" height="46" fill="#ECEEF5"/>
<path fill-rule="evenodd" clip-rule="evenodd" d="M238 182H292V128H238V182ZM291.1 181.1H238.9V128.9H291.1V181.1Z" fill="#3F3D56"/>
<rect x="245" y="152" width="30" height="1" fill="#3F3D56"/>
<rect x="245" y="158" width="30" height="1" fill="#3F3D56"/>
<rect x="245" y="164" width="30" height="1" fill="#3F3D56"/>
<rect x="58" y="59" width="206" height="1" fill="#3F3D56"/>
<rect x="209" y="181" width="113" height="1" fill="#3F3D56"/>
<rect y="258" width="133" height="1" fill="#3F3D56"/>
</svg>
