<svg width="16" height="14" viewBox="0 0 16 14" fill="none" xmlns="http://www.w3.org/2000/svg">
<path d="M9.51172 1.76172V3.23828H0.511719V1.76172H2.76172L3.5 0.988281H6.48828L7.26172 1.76172H9.51172ZM1.25 11.5V4.01172H8.73828V11.5C8.73828 11.8984 8.58594 12.25 8.28125 12.5547C8 12.8594 7.66016 13.0117 7.26172 13.0117H2.76172C2.36328 13.0117 2.01172 12.8594 1.70703 12.5547C1.40234 12.25 1.25 11.8984 1.25 11.5ZM10.25 7H14.75V8.51172H10.25V7ZM10.25 4.01172H15.4883V5.48828H10.25V4.01172ZM10.25 9.98828H13.2383V11.5H10.25V9.98828Z" fill="#8083A3"/>
</svg>
