<svg width="236" height="244" viewBox="0 0 236 244" fill="none" xmlns="http://www.w3.org/2000/svg">
<path fill-rule="evenodd" clip-rule="evenodd" d="M119.5 5.57645C121.727 5.57645 123.979 5.64174 126.195 5.77054L126.228 5.19543C124.001 5.06574 121.737 5 119.5 5H119.318V5.57645H119.5ZM105.591 6.41989L105.521 5.84746C107.796 5.5693 110.112 5.35553 112.406 5.216L112.441 5.79111C110.159 5.93109 107.855 6.14217 105.591 6.41721V6.41989ZM133.049 6.37606C135.321 6.64618 137.61 6.98963 139.853 7.39615L139.955 6.82864C137.7 6.41989 135.4 6.07509 133.116 5.80363L133.049 6.37606ZM92.065 8.91666L91.927 8.3572C94.156 7.80355 96.4304 7.31207 98.6865 6.89617L98.7902 7.46323C96.5457 7.87689 94.2829 8.36614 92.0668 8.9171L92.065 8.91666ZM146.583 8.82945C148.801 9.37281 151.032 9.99175 153.214 10.6697L153.384 10.1192C151.19 9.43765 148.945 8.81514 146.719 8.26954L146.583 8.82945ZM78.9396 13.0399L78.9394 13.0395C81.075 12.2221 83.2617 11.4607 85.4404 10.7788L85.269 10.2288C83.0805 10.9166 80.8823 11.6817 78.7352 12.5033L78.9394 13.0395L78.9383 13.0399H78.9396ZM159.734 12.9165C161.874 13.7255 164.015 14.6159 166.104 15.555L166.339 15.0309C164.24 14.0846 162.086 13.192 159.938 12.3772L159.734 12.9165ZM66.4255 18.7231L66.1584 18.2132C68.1866 17.1399 70.2735 16.1114 72.3613 15.1646L72.5978 15.6896C70.5202 16.6332 68.4439 17.6538 66.4264 18.7231H66.4255ZM172.298 18.5773C174.321 19.6421 176.34 20.7838 178.299 21.9716L178.597 21.4779C176.628 20.2843 174.599 19.1367 172.566 18.0666L172.298 18.5773ZM54.6796 25.8869L54.3527 25.4129C56.2389 24.1003 58.1882 22.8284 60.1483 21.6335L60.4461 22.1254C58.4963 23.3145 56.5563 24.5801 54.6796 25.8864V25.8869ZM184.083 25.7228C185.967 27.0264 187.833 28.4038 189.632 29.817L189.985 29.3626C188.178 27.9427 186.302 26.5582 184.409 25.2483L184.083 25.7228ZM43.8704 34.4232L43.4893 33.9921C45.2022 32.4635 46.9868 30.9654 48.7932 29.5388L49.1494 29.9918C47.3528 31.4113 45.5753 32.9023 43.8704 34.4232ZM194.923 34.2385C196.63 35.755 198.318 37.3471 199.939 38.9695L200.344 38.5617C198.715 36.9307 197.018 35.3311 195.302 33.807L194.923 34.2385ZM34.1535 44.2019L33.7238 43.8195C35.2448 42.0933 36.8406 40.3903 38.46 38.7589L38.8666 39.1659C37.2525 40.7897 35.6669 42.4837 34.1535 44.2019ZM204.661 43.9935C206.177 45.7063 207.662 47.4889 209.076 49.292L209.527 48.9356C208.106 47.1226 206.613 45.3311 205.091 43.6107L204.661 43.9935ZM25.6686 55.0834L25.1962 54.7556C26.499 52.8599 27.8784 50.9767 29.2957 49.1579L29.7476 49.5129C28.3401 51.3232 26.9661 53.197 25.6686 55.0834ZM213.165 54.8464C214.467 56.7322 215.728 58.6803 216.913 60.6355L217.403 60.3363C216.213 58.3708 214.946 56.4134 213.637 54.5177L213.165 54.8464ZM18.5488 66.9165L18.0404 66.6482C19.1054 64.6085 20.2493 62.571 21.4404 60.5925L21.9302 60.8908C20.7471 62.8599 19.609 64.8871 18.5488 66.9165ZM220.306 66.6393C221.37 68.6656 222.389 70.7505 223.329 72.8362L223.852 72.5992C222.906 70.5027 221.884 68.4071 220.813 66.3709L220.306 66.6393ZM12.9034 79.5336L12.3664 79.3297C13.179 77.1724 14.0691 75.0097 15.0121 72.9011L15.5358 73.1376C14.5972 75.2355 13.7115 77.3875 12.9034 79.5336ZM225.972 79.2022C226.786 81.3466 227.546 83.5429 228.229 85.7315L228.777 85.5575C228.089 83.3577 227.325 81.1503 226.506 78.997L225.972 79.2022ZM8.82702 92.7397L8.26955 92.6029C8.81411 90.3668 9.4348 88.1129 10.1147 85.9099L10.6628 86.0803C9.98648 88.2716 9.3689 90.5126 8.82746 92.7397H8.82702ZM230.085 92.386C230.633 94.6046 231.121 96.8773 231.537 99.1388L232.101 99.0355C231.684 96.7641 231.193 94.4789 230.642 92.2473L230.085 92.386ZM6.37808 106.333L5.80815 106.265C6.07976 103.975 6.42394 101.665 6.83225 99.3973L7.39729 99.4997C6.99076 101.756 6.64791 104.055 6.37808 106.333ZM232.578 105.969C232.854 108.24 233.066 110.555 233.207 112.849L233.78 112.814C233.638 110.508 233.426 108.182 233.148 105.899L232.578 105.969ZM5.57394 120.122H5V120C5 117.732 5.06634 115.438 5.1977 113.182L5.7703 113.216C5.63984 115.461 5.5735 117.744 5.5735 120L5.57394 120.122ZM233.222 126.906L233.795 126.94C233.931 124.642 234 122.307 234 119.999V119.756H233.426V119.999C233.426 122.296 233.356 124.619 233.222 126.906ZM5.83798 133.98C5.56236 131.694 5.3522 129.367 5.21462 127.064L5.78722 127.029C5.92525 129.321 6.13453 131.636 6.41059 133.91L5.83798 133.98ZM231.581 140.619L232.146 140.723V140.723C232.556 138.457 232.903 136.145 233.175 133.857L232.605 133.788C232.335 136.066 231.989 138.364 231.581 140.619ZM8.32788 147.635C7.77843 145.399 7.29042 143.115 6.87678 140.845L7.44137 140.741C7.85323 143 8.33901 145.272 8.88535 147.496L8.32788 147.635ZM228.302 154.035L228.85 154.206V154.205C229.532 152.004 230.155 149.753 230.702 147.515L230.145 147.377C229.601 149.604 228.981 151.843 228.302 154.035ZM12.4488 160.887C11.6322 158.732 10.8712 156.524 10.1873 154.324L10.735 154.152C11.4158 156.34 12.1727 158.538 12.9849 160.681L12.4488 160.887ZM223.415 166.972L223.938 167.209L223.938 167.208C224.885 165.097 225.777 162.935 226.59 160.782L226.053 160.577C225.245 162.721 224.357 164.87 223.415 166.972ZM18.1303 173.521C17.0617 171.483 16.0416 169.386 15.0985 167.289L15.6213 167.052C16.5599 169.139 17.5746 171.225 18.6379 173.252L18.1303 173.521ZM217.007 179.213L217.496 179.511C218.689 177.536 219.834 175.5 220.904 173.46L220.396 173.191C219.332 175.222 218.192 177.248 217.007 179.213ZM25.2932 185.381C23.9864 183.485 22.7209 181.526 21.5334 179.56L22.0232 179.26C23.2054 181.218 24.4641 183.167 25.7634 185.053L25.2932 185.381ZM209.176 190.58L209.628 190.937C211.049 189.119 212.43 187.236 213.733 185.342L213.261 185.014C211.964 186.897 210.59 188.77 209.176 190.58ZM33.8293 196.293C32.3047 194.567 30.814 192.774 29.3985 190.963L29.8496 190.605C31.2584 192.406 32.7438 194.191 34.2577 195.908L33.8293 196.293ZM200.049 200.916L200.455 201.323H200.456C202.081 199.691 203.677 197.99 205.198 196.267L204.769 195.884C203.255 197.599 201.666 199.291 200.049 200.916ZM43.6081 206.108C41.889 204.579 40.1943 202.978 38.5714 201.348L38.977 200.941C40.5919 202.561 42.2781 204.155 43.9884 205.677L43.6081 206.108ZM190.111 210.533L190.112 210.535L190.111 210.534L190.111 210.533ZM190.111 210.533L189.756 210.082C191.558 208.662 193.335 207.175 195.038 205.654L195.419 206.085C193.707 207.61 191.921 209.106 190.111 210.533ZM54.493 214.679C52.6024 213.367 50.7279 211.98 48.9214 210.559L49.2777 210.105C51.0747 211.52 52.9399 212.899 54.8212 214.205L54.493 214.679ZM178.452 217.935L178.749 218.427C180.708 217.233 182.661 215.963 184.549 214.655L184.222 214.181C182.346 215.484 180.404 216.747 178.452 217.935ZM66.3276 221.873C64.2919 220.799 62.2641 219.649 60.3001 218.455L60.5971 217.963C62.5513 219.151 64.5688 220.295 66.5943 221.364L66.3276 221.873ZM166.292 224.356L166.528 224.882V224.883C168.617 223.937 170.705 222.913 172.734 221.84L172.467 221.33C170.448 222.396 168.371 223.417 166.292 224.356ZM78.9507 227.579C76.8037 226.763 74.6509 225.868 72.5519 224.919L72.7874 224.393C74.8757 225.337 77.0174 226.227 79.1547 227.04L78.9507 227.579ZM153.446 229.256L153.617 229.807V229.808C155.805 229.123 158.004 228.36 160.151 227.54L159.947 227C157.81 227.816 155.623 228.575 153.446 229.256ZM92.1643 231.7C89.9349 231.152 87.693 230.527 85.5014 229.844L85.672 229.294C87.8537 229.974 90.0832 230.595 92.3014 231.141L92.1643 231.7ZM140.195 233.126L140.196 233.126L140.195 233.126L140.195 233.126ZM140.195 233.126L140.092 232.559C142.339 232.147 144.602 231.66 146.819 231.112L146.956 231.672C144.73 232.222 142.454 232.712 140.195 233.126ZM105.764 234.181C103.485 233.907 101.184 233.56 98.9269 233.149L99.0293 232.581C101.275 232.99 103.564 233.336 105.832 233.61L105.764 234.181ZM126.439 234.215L126.473 234.79L126.476 234.79C128.766 234.652 131.083 234.442 133.359 234.166L133.29 233.594C131.025 233.869 128.72 234.077 126.439 234.215ZM119.5 235H119.561L119.562 234.424H119.501C117.235 234.424 114.942 234.356 112.685 234.222L112.651 234.797C114.919 234.932 117.224 235 119.5 235Z" fill="#3F3B56"/>
<rect x="168" y="193" width="68" height="51" fill="#F6933E"/>
<rect x="177" y="206" width="51" height="4" fill="white"/>
<rect x="177" y="217" width="51" height="4" fill="white"/>
<rect x="177" y="227" width="51" height="4" fill="white"/>
<rect x="4" width="47" height="36" fill="#ECEEF5"/>
<rect x="9" y="9" width="36" height="3" fill="white"/>
<rect x="9" y="17" width="36" height="3" fill="white"/>
<rect x="9" y="24" width="36" height="3" fill="white"/>
<rect x="25" y="19" width="47" height="36" fill="#F6933E"/>
<rect x="30" y="27" width="36" height="3" fill="white"/>
<rect x="30" y="34" width="36" height="3" fill="white"/>
<rect x="30" y="43" width="36" height="3" fill="white"/>
<path fill-rule="evenodd" clip-rule="evenodd" d="M56 167H185V71H56V167ZM57.3299 165.679V72.3211H183.67V165.679H57.3299Z" fill="#ECEEF5"/>
<path d="M119.841 144.681C133.502 144.681 144.577 133.607 144.577 119.945C144.577 106.284 133.502 95.209 119.841 95.209C106.179 95.209 95.1045 106.284 95.1045 119.945C95.1045 133.607 106.179 144.681 119.841 144.681Z" fill="#F6933E"/>
<path d="M130.113 117.868H121.702V109.458C121.702 108.365 120.816 107.479 119.723 107.479V107.479C118.63 107.479 117.744 108.365 117.744 109.458V117.868H109.334C108.241 117.868 107.355 118.754 107.355 119.847V119.847C107.355 120.94 108.241 121.826 109.334 121.826H117.744V130.236C117.744 131.329 118.63 132.215 119.723 132.215V132.215C120.816 132.215 121.702 131.329 121.702 130.236V121.826H130.113C131.205 121.826 132.092 120.94 132.092 119.847V119.847C132.092 118.754 131.205 117.868 130.113 117.868V117.868Z" fill="white"/>
<rect y="184" width="47" height="36" fill="#ECEEF5"/>
<rect x="7" y="194" width="36" height="3" fill="white"/>
<rect x="7" y="199" width="36" height="3" fill="white"/>
<rect x="7" y="207" width="36" height="3" fill="white"/>
</svg>
