<svg id="SvgjsSvg1001" width="288" height="288" xmlns="http://www.w3.org/2000/svg" version="1.1" xmlns:xlink="http://www.w3.org/1999/xlink" xmlns:svgjs="http://svgjs.com/svgjs"><defs id="SvgjsDefs1002"></defs><g id="SvgjsG1008"><svg xmlns="http://www.w3.org/2000/svg" fill="none" viewBox="0 0 18 18" width="288" height="288"><path fill="#6b59cc" d="M4.05859 7.88281C5.43359 10.5469 7.45312 12.5664 10.1172 13.9414L12.1367 11.9219C12.4232 11.6354 12.7383 11.5638 13.082 11.707C14.1133 12.0508 15.2018 12.2227 16.3477 12.2227C16.6055 12.2227 16.8203 12.3086 16.9922 12.4805C17.1641 12.6523 17.25 12.8672 17.25 13.125V16.3477C17.25 16.6055 17.1641 16.8203 16.9922 16.9922C16.8203 17.1641 16.6055 17.25 16.3477 17.25C12.0508 17.25 8.36979 15.7318 5.30469 12.6953C2.26823 9.63021 0.75 5.94922 0.75 1.65234C0.75 1.39453 0.835938 1.17969 1.00781 1.00781C1.17969 0.835938 1.39453 0.75 1.65234 0.75H4.875C5.13281 0.75 5.34766 0.835938 5.51953 1.00781C5.69141 1.17969 5.77734 1.39453 5.77734 1.65234C5.77734 2.79818 5.94922 3.88672 6.29297 4.91797C6.40755 5.29036 6.33594 5.60547 6.07812 5.86328L4.05859 7.88281Z" class="color8083A3 svgShape"></path></svg></g></svg>