<svg width="22" height="16" viewBox="0 0 22 16" fill="none" xmlns="http://www.w3.org/2000/svg">
<path d="M20.1523 12.5977V6.15234H16.5V12.5977H20.1523ZM21.0977 4.34766C21.3555 4.34766 21.5703 4.43359 21.7422 4.60547C21.9141 4.77734 22 4.99219 22 5.25V14.4023C22 14.6602 21.9141 14.8893 21.7422 15.0898C21.5703 15.2617 21.3555 15.3477 21.0977 15.3477H15.5977C15.3398 15.3477 15.1107 15.2617 14.9102 15.0898C14.7383 14.8893 14.6523 14.6602 14.6523 14.4023V5.25C14.6523 4.99219 14.7383 4.77734 14.9102 4.60547C15.1107 4.43359 15.3398 4.34766 15.5977 4.34766H21.0977ZM3.65234 2.5V12.5977H12.8477V15.3477H0V12.5977H1.84766V2.5C1.84766 2.01302 2.01953 1.58333 2.36328 1.21094C2.73568 0.838542 3.16536 0.652344 3.65234 0.652344H20.1523V2.5H3.65234Z" fill="#8083A3"/>
</svg>
