<svg width="20" height="14" viewBox="0 0 20 14" fill="none" xmlns="http://www.w3.org/2000/svg">
<path d="M7.25 7.90234C7.88021 7.90234 8.61068 7.98828 9.44141 8.16016C7.98047 8.96224 7.25 10.0221 7.25 11.3398V13.4023H0.847656V11.125C0.847656 10.4661 1.23438 9.87891 2.00781 9.36328C2.8099 8.84766 3.68359 8.47526 4.62891 8.24609C5.57422 8.01693 6.44792 7.90234 7.25 7.90234ZM10.8164 9.53516C11.9622 9.07682 13.0651 8.84766 14.125 8.84766C15.1849 8.84766 16.2878 9.07682 17.4336 9.53516C18.5794 9.99349 19.1523 10.5951 19.1523 11.3398V13.4023H9.09766V11.3398C9.09766 10.5951 9.67057 9.99349 10.8164 9.53516ZM9.18359 5.28125C8.63932 5.82552 7.99479 6.09766 7.25 6.09766C6.50521 6.09766 5.86068 5.82552 5.31641 5.28125C4.77214 4.73698 4.5 4.09245 4.5 3.34766C4.5 2.60286 4.77214 1.95833 5.31641 1.41406C5.86068 0.869792 6.50521 0.597656 7.25 0.597656C7.99479 0.597656 8.63932 0.869792 9.18359 1.41406C9.72786 1.95833 10 2.60286 10 3.34766C10 4.09245 9.72786 4.73698 9.18359 5.28125ZM15.7148 6.35547C15.2852 6.78516 14.7552 7 14.125 7C13.4948 7 12.9505 6.78516 12.4922 6.35547C12.0625 5.89714 11.8477 5.35286 11.8477 4.72266C11.8477 4.09245 12.0625 3.54818 12.4922 3.08984C12.9505 2.63151 13.4948 2.40234 14.125 2.40234C14.7552 2.40234 15.2852 2.63151 15.7148 3.08984C16.1732 3.54818 16.4023 4.09245 16.4023 4.72266C16.4023 5.35286 16.1732 5.89714 15.7148 6.35547Z" fill="#8083A3"/>
</svg>
