<svg width="18" height="16" viewBox="0 0 18 16" fill="none" xmlns="http://www.w3.org/2000/svg">
<path d="M9 6.15234L12.6523 9.84766H9.90234V15.3477H8.09766V9.84766H5.34766L9 6.15234ZM15.4023 0.652344C15.918 0.652344 16.3477 0.838542 16.6914 1.21094C17.0638 1.58333 17.25 2.01302 17.25 2.5V13.5C17.25 13.987 17.0638 14.4167 16.6914 14.7891C16.319 15.1615 15.8893 15.3477 15.4023 15.3477H11.75V13.5H15.4023V4.34766H2.59766V13.5H6.25V15.3477H2.59766C2.08203 15.3477 1.63802 15.1615 1.26562 14.7891C0.921875 14.4167 0.75 13.987 0.75 13.5V2.5C0.75 2.01302 0.921875 1.58333 1.26562 1.21094C1.63802 0.838542 2.08203 0.652344 2.59766 0.652344H15.4023Z" fill="#8083A3"/>
</svg>
