<svg width="20" height="20" viewBox="0 0 20 20" fill="none" xmlns="http://www.w3.org/2000/svg">
<path d="M7.72266 12.2773C8.35286 12.9076 9.11198 13.2227 10 13.2227C10.888 13.2227 11.6471 12.9076 12.2773 12.2773C12.9076 11.6471 13.2227 10.888 13.2227 10C13.2227 9.11198 12.9076 8.35286 12.2773 7.72266C11.6471 7.09245 10.888 6.77734 10 6.77734C9.11198 6.77734 8.35286 7.09245 7.72266 7.72266C7.09245 8.35286 6.77734 9.11198 6.77734 10C6.77734 10.888 7.09245 11.6471 7.72266 12.2773ZM16.832 10.9023L18.7656 12.4062C18.9661 12.5495 18.9948 12.75 18.8516 13.0078L17.0039 16.1875C16.8893 16.388 16.7031 16.4453 16.4453 16.3594L14.168 15.457C13.5664 15.8867 13.0508 16.1875 12.6211 16.3594L12.2773 18.7656C12.2201 19.0234 12.0768 19.1523 11.8477 19.1523H8.15234C7.92318 19.1523 7.77995 19.0234 7.72266 18.7656L7.37891 16.3594C6.83464 16.1302 6.31901 15.8294 5.83203 15.457L3.55469 16.3594C3.29688 16.4453 3.11068 16.388 2.99609 16.1875L1.14844 13.0078C1.00521 12.75 1.03385 12.5495 1.23438 12.4062L3.16797 10.9023C3.13932 10.7018 3.125 10.401 3.125 10C3.125 9.59896 3.13932 9.29818 3.16797 9.09766L1.23438 7.59375C1.03385 7.45052 1.00521 7.25 1.14844 6.99219L2.99609 3.8125C3.11068 3.61198 3.29688 3.55469 3.55469 3.64062L5.83203 4.54297C6.43359 4.11328 6.94922 3.8125 7.37891 3.64062L7.72266 1.23438C7.77995 0.976562 7.92318 0.847656 8.15234 0.847656H11.8477C12.0768 0.847656 12.2201 0.976562 12.2773 1.23438L12.6211 3.64062C13.1654 3.86979 13.681 4.17057 14.168 4.54297L16.4453 3.64062C16.7031 3.55469 16.8893 3.61198 17.0039 3.8125L18.8516 6.99219C18.9948 7.25 18.9661 7.45052 18.7656 7.59375L16.832 9.09766C16.8607 9.29818 16.875 9.59896 16.875 10C16.875 10.401 16.8607 10.7018 16.832 10.9023Z" fill="#8083A3"/>
</svg>
