<svg width="22" height="16" viewBox="0 0 22 16" fill="none" xmlns="http://www.w3.org/2000/svg">
<path d="M17.4023 13.5C18.1471 13.5 18.7917 13.2279 19.3359 12.6836C19.8802 12.1393 20.1523 11.4948 20.1523 10.75C20.1523 10.0052 19.8802 9.36068 19.3359 8.81641C18.7917 8.27214 18.1471 8 17.4023 8H16.0273V7.52734C16.0273 6.1237 15.5404 4.9349 14.5664 3.96094C13.5924 2.98698 12.4036 2.5 11 2.5C9.33854 2.5 7.99219 3.17318 6.96094 4.51953C8.13542 4.83464 9.09505 5.49349 9.83984 6.49609C10.6133 7.47005 11 8.58724 11 9.84766H9.15234C9.15234 8.84505 8.79427 7.98568 8.07812 7.26953C7.36198 6.52474 6.5026 6.15234 5.5 6.15234C4.4974 6.15234 3.63802 6.52474 2.92188 7.26953C2.20573 7.98568 1.84766 8.84505 1.84766 9.84766C1.84766 10.8503 2.20573 11.7096 2.92188 12.4258C3.63802 13.1419 4.4974 13.5 5.5 13.5H17.4023ZM17.7461 6.19531C18.9206 6.28125 19.9232 6.76823 20.7539 7.65625C21.5846 8.51562 22 9.54688 22 10.75C22 12.0104 21.5417 13.099 20.625 14.0156C19.737 14.9036 18.6628 15.3477 17.4023 15.3477H5.5C3.98177 15.3477 2.67839 14.8177 1.58984 13.7578C0.529948 12.6693 0 11.3659 0 9.84766C0 8.44401 0.472656 7.22656 1.41797 6.19531C2.36328 5.13542 3.52344 4.53385 4.89844 4.39062C5.5 3.27344 6.34505 2.37109 7.43359 1.68359C8.52214 0.996094 9.71094 0.652344 11 0.652344C12.6615 0.652344 14.1224 1.18229 15.3828 2.24219C16.6432 3.27344 17.431 4.59115 17.7461 6.19531Z" fill="#8083A3"/>
</svg>
