<svg id="SvgjsSvg1021" width="288" height="288" xmlns="http://www.w3.org/2000/svg" version="1.1" xmlns:xlink="http://www.w3.org/1999/xlink" xmlns:svgjs="http://svgjs.com/svgjs"><defs id="SvgjsDefs1022"></defs><g id="SvgjsG1023"><svg xmlns="http://www.w3.org/2000/svg" fill="none" viewBox="0 0 20 20" width="288" height="288"><path fill="#6b59cc" d="M14.5977 10C14.5977 10.2578 14.4974 10.4727 14.2969 10.6445C14.125 10.8164 13.9102 10.9023 13.6523 10.9023H4.5L0.847656 14.5977V1.75C0.847656 1.49219 0.933594 1.27734 1.10547 1.10547C1.27734 0.933594 1.49219 0.847656 1.75 0.847656H13.6523C13.9102 0.847656 14.125 0.933594 14.2969 1.10547C14.4974 1.27734 14.5977 1.49219 14.5977 1.75V10ZM18.25 4.5C18.5078 4.5 18.7227 4.58594 18.8945 4.75781C19.0664 4.92969 19.1523 5.14453 19.1523 5.40234V19.1523L15.5 15.5H5.40234C5.14453 15.5 4.92969 15.4141 4.75781 15.2422C4.58594 15.0703 4.5 14.8555 4.5 14.5977V12.75H16.4023V4.5H18.25Z" class="color8083A3 svgShape"></path></svg></g></svg>