<svg width="114" height="114" viewBox="0 0 114 114" fill="none" xmlns="http://www.w3.org/2000/svg">
<g clip-path="url(#clip0_0_3807)">
<rect width="114" height="114" rx="26" fill="#ECEEF5"/>
<path d="M60.3516 59.3516V61.6484H52.1484V59.3516H60.3516ZM66.1484 65.1484V52.3516H49.8516V65.1484H66.1484ZM66.1484 46.5C66.7682 46.5 67.3151 46.737 67.7891 47.2109C68.263 47.6849 68.5 48.2318 68.5 48.8516V65.1484C68.5 65.7682 68.263 66.3151 67.7891 66.7891C67.3151 67.263 66.7682 67.5 66.1484 67.5H49.8516C49.1953 67.5 48.6302 67.263 48.1562 66.7891C47.7188 66.3151 47.5 65.7682 47.5 65.1484V48.8516C47.5 48.2318 47.7188 47.6849 48.1562 47.2109C48.6302 46.737 49.1953 46.5 49.8516 46.5H51V44.1484H53.3516V46.5H62.6484V44.1484H65V46.5H66.1484ZM63.8516 54.6484V57H52.1484V54.6484H63.8516Z" fill="#8083A3"/>
</g>
<defs>
<clipPath id="clip0_0_3807">
<rect width="114" height="114" fill="white"/>
</clipPath>
</defs>
</svg>
