<svg width="18" height="14" viewBox="0 0 18 14" fill="none" xmlns="http://www.w3.org/2000/svg">
<path d="M14.2383 9.70703L11.5664 7L14.2383 4.29297L13.1836 3.23828L10.5117 5.94531L7.80469 3.23828L6.75 4.29297L9.45703 7L6.75 9.70703L7.80469 10.7617L10.5117 8.05469L13.1836 10.7617L14.2383 9.70703ZM16.4883 0.25C16.8867 0.25 17.2383 0.402344 17.543 0.707031C17.8477 1.01172 18 1.36328 18 1.76172V12.2383C18 12.6367 17.8477 12.9883 17.543 13.293C17.2383 13.5977 16.8867 13.75 16.4883 13.75H5.23828C4.76953 13.75 4.37109 13.5273 4.04297 13.082L0 7L4.04297 0.917969C4.37109 0.472656 4.76953 0.25 5.23828 0.25H16.4883Z" fill="#8083A3"/>
</svg>
